G04 #@! TF.GenerationSoftware,KiCad,Pcbnew,5.0.1-33cea8e~67~ubuntu16.04.1*
G04 #@! TF.CreationDate,2018-10-18T10:50:00-04:00*
G04 #@! TF.ProjectId,MQP Kat Foot Sensors,4D5150204B617420466F6F742053656E,rev?*
G04 #@! TF.SameCoordinates,Original*
G04 #@! TF.FileFunction,Paste,Bot*
G04 #@! TF.FilePolarity,Positive*
%FSLAX46Y46*%
G04 Gerber Fmt 4.6, Leading zero omitted, Abs format (unit mm)*
G04 Created by KiCad (PCBNEW 5.0.1-33cea8e~67~ubuntu16.04.1) date Thu 18 Oct 2018 10:50:00 AM EDT*
%MOMM*%
%LPD*%
G01*
G04 APERTURE LIST*
%ADD10R,0.500000X0.350000*%
%ADD11C,0.100000*%
%ADD12C,0.590000*%
G04 APERTURE END LIST*
D10*
G04 #@! TO.C,IC6*
X-13800000Y-9975000D03*
X-13800000Y-9325000D03*
X-13800000Y-8675000D03*
X-13800000Y-8025000D03*
X-12200000Y-8025000D03*
X-12200000Y-8675000D03*
X-12200000Y-9325000D03*
X-12200000Y-9975000D03*
G04 #@! TD*
G04 #@! TO.C,IC7*
X12200000Y-9975000D03*
X12200000Y-9325000D03*
X12200000Y-8675000D03*
X12200000Y-8025000D03*
X13800000Y-8025000D03*
X13800000Y-8675000D03*
X13800000Y-9325000D03*
X13800000Y-9975000D03*
G04 #@! TD*
G04 #@! TO.C,IC3*
X-800000Y-17475000D03*
X-800000Y-16825000D03*
X-800000Y-16175000D03*
X-800000Y-15525000D03*
X800000Y-15525000D03*
X800000Y-16175000D03*
X800000Y-16825000D03*
X800000Y-17475000D03*
G04 #@! TD*
G04 #@! TO.C,IC4*
X-800000Y-975000D03*
X-800000Y-325000D03*
X-800000Y325000D03*
X-800000Y975000D03*
X800000Y975000D03*
X800000Y325000D03*
X800000Y-325000D03*
X800000Y-975000D03*
G04 #@! TD*
G04 #@! TO.C,IC1*
X-13800000Y8025000D03*
X-13800000Y8675000D03*
X-13800000Y9325000D03*
X-13800000Y9975000D03*
X-12200000Y9975000D03*
X-12200000Y9325000D03*
X-12200000Y8675000D03*
X-12200000Y8025000D03*
G04 #@! TD*
G04 #@! TO.C,IC2*
X800000Y16975000D03*
X800000Y16325000D03*
X800000Y15675000D03*
X800000Y15025000D03*
X-800000Y15025000D03*
X-800000Y15675000D03*
X-800000Y16325000D03*
X-800000Y16975000D03*
G04 #@! TD*
G04 #@! TO.C,IC5*
X12200000Y8025000D03*
X12200000Y8675000D03*
X12200000Y9325000D03*
X12200000Y9975000D03*
X13800000Y9975000D03*
X13800000Y9325000D03*
X13800000Y8675000D03*
X13800000Y8025000D03*
G04 #@! TD*
D11*
G04 #@! TO.C,C4*
G36*
X-14603042Y-8275710D02*
X-14588724Y-8277834D01*
X-14574683Y-8281351D01*
X-14561054Y-8286228D01*
X-14547969Y-8292417D01*
X-14535553Y-8299858D01*
X-14523927Y-8308481D01*
X-14513202Y-8318202D01*
X-14503481Y-8328927D01*
X-14494858Y-8340553D01*
X-14487417Y-8352969D01*
X-14481228Y-8366054D01*
X-14476351Y-8379683D01*
X-14472834Y-8393724D01*
X-14470710Y-8408042D01*
X-14470000Y-8422500D01*
X-14470000Y-8717500D01*
X-14470710Y-8731958D01*
X-14472834Y-8746276D01*
X-14476351Y-8760317D01*
X-14481228Y-8773946D01*
X-14487417Y-8787031D01*
X-14494858Y-8799447D01*
X-14503481Y-8811073D01*
X-14513202Y-8821798D01*
X-14523927Y-8831519D01*
X-14535553Y-8840142D01*
X-14547969Y-8847583D01*
X-14561054Y-8853772D01*
X-14574683Y-8858649D01*
X-14588724Y-8862166D01*
X-14603042Y-8864290D01*
X-14617500Y-8865000D01*
X-14962500Y-8865000D01*
X-14976958Y-8864290D01*
X-14991276Y-8862166D01*
X-15005317Y-8858649D01*
X-15018946Y-8853772D01*
X-15032031Y-8847583D01*
X-15044447Y-8840142D01*
X-15056073Y-8831519D01*
X-15066798Y-8821798D01*
X-15076519Y-8811073D01*
X-15085142Y-8799447D01*
X-15092583Y-8787031D01*
X-15098772Y-8773946D01*
X-15103649Y-8760317D01*
X-15107166Y-8746276D01*
X-15109290Y-8731958D01*
X-15110000Y-8717500D01*
X-15110000Y-8422500D01*
X-15109290Y-8408042D01*
X-15107166Y-8393724D01*
X-15103649Y-8379683D01*
X-15098772Y-8366054D01*
X-15092583Y-8352969D01*
X-15085142Y-8340553D01*
X-15076519Y-8328927D01*
X-15066798Y-8318202D01*
X-15056073Y-8308481D01*
X-15044447Y-8299858D01*
X-15032031Y-8292417D01*
X-15018946Y-8286228D01*
X-15005317Y-8281351D01*
X-14991276Y-8277834D01*
X-14976958Y-8275710D01*
X-14962500Y-8275000D01*
X-14617500Y-8275000D01*
X-14603042Y-8275710D01*
X-14603042Y-8275710D01*
G37*
D12*
X-14790000Y-8570000D03*
D11*
G36*
X-14603042Y-9245710D02*
X-14588724Y-9247834D01*
X-14574683Y-9251351D01*
X-14561054Y-9256228D01*
X-14547969Y-9262417D01*
X-14535553Y-9269858D01*
X-14523927Y-9278481D01*
X-14513202Y-9288202D01*
X-14503481Y-9298927D01*
X-14494858Y-9310553D01*
X-14487417Y-9322969D01*
X-14481228Y-9336054D01*
X-14476351Y-9349683D01*
X-14472834Y-9363724D01*
X-14470710Y-9378042D01*
X-14470000Y-9392500D01*
X-14470000Y-9687500D01*
X-14470710Y-9701958D01*
X-14472834Y-9716276D01*
X-14476351Y-9730317D01*
X-14481228Y-9743946D01*
X-14487417Y-9757031D01*
X-14494858Y-9769447D01*
X-14503481Y-9781073D01*
X-14513202Y-9791798D01*
X-14523927Y-9801519D01*
X-14535553Y-9810142D01*
X-14547969Y-9817583D01*
X-14561054Y-9823772D01*
X-14574683Y-9828649D01*
X-14588724Y-9832166D01*
X-14603042Y-9834290D01*
X-14617500Y-9835000D01*
X-14962500Y-9835000D01*
X-14976958Y-9834290D01*
X-14991276Y-9832166D01*
X-15005317Y-9828649D01*
X-15018946Y-9823772D01*
X-15032031Y-9817583D01*
X-15044447Y-9810142D01*
X-15056073Y-9801519D01*
X-15066798Y-9791798D01*
X-15076519Y-9781073D01*
X-15085142Y-9769447D01*
X-15092583Y-9757031D01*
X-15098772Y-9743946D01*
X-15103649Y-9730317D01*
X-15107166Y-9716276D01*
X-15109290Y-9701958D01*
X-15110000Y-9687500D01*
X-15110000Y-9392500D01*
X-15109290Y-9378042D01*
X-15107166Y-9363724D01*
X-15103649Y-9349683D01*
X-15098772Y-9336054D01*
X-15092583Y-9322969D01*
X-15085142Y-9310553D01*
X-15076519Y-9298927D01*
X-15066798Y-9288202D01*
X-15056073Y-9278481D01*
X-15044447Y-9269858D01*
X-15032031Y-9262417D01*
X-15018946Y-9256228D01*
X-15005317Y-9251351D01*
X-14991276Y-9247834D01*
X-14976958Y-9245710D01*
X-14962500Y-9245000D01*
X-14617500Y-9245000D01*
X-14603042Y-9245710D01*
X-14603042Y-9245710D01*
G37*
D12*
X-14790000Y-9540000D03*
G04 #@! TD*
D11*
G04 #@! TO.C,C6*
G36*
X-1623042Y-15705710D02*
X-1608724Y-15707834D01*
X-1594683Y-15711351D01*
X-1581054Y-15716228D01*
X-1567969Y-15722417D01*
X-1555553Y-15729858D01*
X-1543927Y-15738481D01*
X-1533202Y-15748202D01*
X-1523481Y-15758927D01*
X-1514858Y-15770553D01*
X-1507417Y-15782969D01*
X-1501228Y-15796054D01*
X-1496351Y-15809683D01*
X-1492834Y-15823724D01*
X-1490710Y-15838042D01*
X-1490000Y-15852500D01*
X-1490000Y-16147500D01*
X-1490710Y-16161958D01*
X-1492834Y-16176276D01*
X-1496351Y-16190317D01*
X-1501228Y-16203946D01*
X-1507417Y-16217031D01*
X-1514858Y-16229447D01*
X-1523481Y-16241073D01*
X-1533202Y-16251798D01*
X-1543927Y-16261519D01*
X-1555553Y-16270142D01*
X-1567969Y-16277583D01*
X-1581054Y-16283772D01*
X-1594683Y-16288649D01*
X-1608724Y-16292166D01*
X-1623042Y-16294290D01*
X-1637500Y-16295000D01*
X-1982500Y-16295000D01*
X-1996958Y-16294290D01*
X-2011276Y-16292166D01*
X-2025317Y-16288649D01*
X-2038946Y-16283772D01*
X-2052031Y-16277583D01*
X-2064447Y-16270142D01*
X-2076073Y-16261519D01*
X-2086798Y-16251798D01*
X-2096519Y-16241073D01*
X-2105142Y-16229447D01*
X-2112583Y-16217031D01*
X-2118772Y-16203946D01*
X-2123649Y-16190317D01*
X-2127166Y-16176276D01*
X-2129290Y-16161958D01*
X-2130000Y-16147500D01*
X-2130000Y-15852500D01*
X-2129290Y-15838042D01*
X-2127166Y-15823724D01*
X-2123649Y-15809683D01*
X-2118772Y-15796054D01*
X-2112583Y-15782969D01*
X-2105142Y-15770553D01*
X-2096519Y-15758927D01*
X-2086798Y-15748202D01*
X-2076073Y-15738481D01*
X-2064447Y-15729858D01*
X-2052031Y-15722417D01*
X-2038946Y-15716228D01*
X-2025317Y-15711351D01*
X-2011276Y-15707834D01*
X-1996958Y-15705710D01*
X-1982500Y-15705000D01*
X-1637500Y-15705000D01*
X-1623042Y-15705710D01*
X-1623042Y-15705710D01*
G37*
D12*
X-1810000Y-16000000D03*
D11*
G36*
X-1623042Y-16675710D02*
X-1608724Y-16677834D01*
X-1594683Y-16681351D01*
X-1581054Y-16686228D01*
X-1567969Y-16692417D01*
X-1555553Y-16699858D01*
X-1543927Y-16708481D01*
X-1533202Y-16718202D01*
X-1523481Y-16728927D01*
X-1514858Y-16740553D01*
X-1507417Y-16752969D01*
X-1501228Y-16766054D01*
X-1496351Y-16779683D01*
X-1492834Y-16793724D01*
X-1490710Y-16808042D01*
X-1490000Y-16822500D01*
X-1490000Y-17117500D01*
X-1490710Y-17131958D01*
X-1492834Y-17146276D01*
X-1496351Y-17160317D01*
X-1501228Y-17173946D01*
X-1507417Y-17187031D01*
X-1514858Y-17199447D01*
X-1523481Y-17211073D01*
X-1533202Y-17221798D01*
X-1543927Y-17231519D01*
X-1555553Y-17240142D01*
X-1567969Y-17247583D01*
X-1581054Y-17253772D01*
X-1594683Y-17258649D01*
X-1608724Y-17262166D01*
X-1623042Y-17264290D01*
X-1637500Y-17265000D01*
X-1982500Y-17265000D01*
X-1996958Y-17264290D01*
X-2011276Y-17262166D01*
X-2025317Y-17258649D01*
X-2038946Y-17253772D01*
X-2052031Y-17247583D01*
X-2064447Y-17240142D01*
X-2076073Y-17231519D01*
X-2086798Y-17221798D01*
X-2096519Y-17211073D01*
X-2105142Y-17199447D01*
X-2112583Y-17187031D01*
X-2118772Y-17173946D01*
X-2123649Y-17160317D01*
X-2127166Y-17146276D01*
X-2129290Y-17131958D01*
X-2130000Y-17117500D01*
X-2130000Y-16822500D01*
X-2129290Y-16808042D01*
X-2127166Y-16793724D01*
X-2123649Y-16779683D01*
X-2118772Y-16766054D01*
X-2112583Y-16752969D01*
X-2105142Y-16740553D01*
X-2096519Y-16728927D01*
X-2086798Y-16718202D01*
X-2076073Y-16708481D01*
X-2064447Y-16699858D01*
X-2052031Y-16692417D01*
X-2038946Y-16686228D01*
X-2025317Y-16681351D01*
X-2011276Y-16677834D01*
X-1996958Y-16675710D01*
X-1982500Y-16675000D01*
X-1637500Y-16675000D01*
X-1623042Y-16675710D01*
X-1623042Y-16675710D01*
G37*
D12*
X-1810000Y-16970000D03*
G04 #@! TD*
D11*
G04 #@! TO.C,C10*
G36*
X2056958Y15689290D02*
X2071276Y15687166D01*
X2085317Y15683649D01*
X2098946Y15678772D01*
X2112031Y15672583D01*
X2124447Y15665142D01*
X2136073Y15656519D01*
X2146798Y15646798D01*
X2156519Y15636073D01*
X2165142Y15624447D01*
X2172583Y15612031D01*
X2178772Y15598946D01*
X2183649Y15585317D01*
X2187166Y15571276D01*
X2189290Y15556958D01*
X2190000Y15542500D01*
X2190000Y15247500D01*
X2189290Y15233042D01*
X2187166Y15218724D01*
X2183649Y15204683D01*
X2178772Y15191054D01*
X2172583Y15177969D01*
X2165142Y15165553D01*
X2156519Y15153927D01*
X2146798Y15143202D01*
X2136073Y15133481D01*
X2124447Y15124858D01*
X2112031Y15117417D01*
X2098946Y15111228D01*
X2085317Y15106351D01*
X2071276Y15102834D01*
X2056958Y15100710D01*
X2042500Y15100000D01*
X1697500Y15100000D01*
X1683042Y15100710D01*
X1668724Y15102834D01*
X1654683Y15106351D01*
X1641054Y15111228D01*
X1627969Y15117417D01*
X1615553Y15124858D01*
X1603927Y15133481D01*
X1593202Y15143202D01*
X1583481Y15153927D01*
X1574858Y15165553D01*
X1567417Y15177969D01*
X1561228Y15191054D01*
X1556351Y15204683D01*
X1552834Y15218724D01*
X1550710Y15233042D01*
X1550000Y15247500D01*
X1550000Y15542500D01*
X1550710Y15556958D01*
X1552834Y15571276D01*
X1556351Y15585317D01*
X1561228Y15598946D01*
X1567417Y15612031D01*
X1574858Y15624447D01*
X1583481Y15636073D01*
X1593202Y15646798D01*
X1603927Y15656519D01*
X1615553Y15665142D01*
X1627969Y15672583D01*
X1641054Y15678772D01*
X1654683Y15683649D01*
X1668724Y15687166D01*
X1683042Y15689290D01*
X1697500Y15690000D01*
X2042500Y15690000D01*
X2056958Y15689290D01*
X2056958Y15689290D01*
G37*
D12*
X1870000Y15395000D03*
D11*
G36*
X2056958Y16659290D02*
X2071276Y16657166D01*
X2085317Y16653649D01*
X2098946Y16648772D01*
X2112031Y16642583D01*
X2124447Y16635142D01*
X2136073Y16626519D01*
X2146798Y16616798D01*
X2156519Y16606073D01*
X2165142Y16594447D01*
X2172583Y16582031D01*
X2178772Y16568946D01*
X2183649Y16555317D01*
X2187166Y16541276D01*
X2189290Y16526958D01*
X2190000Y16512500D01*
X2190000Y16217500D01*
X2189290Y16203042D01*
X2187166Y16188724D01*
X2183649Y16174683D01*
X2178772Y16161054D01*
X2172583Y16147969D01*
X2165142Y16135553D01*
X2156519Y16123927D01*
X2146798Y16113202D01*
X2136073Y16103481D01*
X2124447Y16094858D01*
X2112031Y16087417D01*
X2098946Y16081228D01*
X2085317Y16076351D01*
X2071276Y16072834D01*
X2056958Y16070710D01*
X2042500Y16070000D01*
X1697500Y16070000D01*
X1683042Y16070710D01*
X1668724Y16072834D01*
X1654683Y16076351D01*
X1641054Y16081228D01*
X1627969Y16087417D01*
X1615553Y16094858D01*
X1603927Y16103481D01*
X1593202Y16113202D01*
X1583481Y16123927D01*
X1574858Y16135553D01*
X1567417Y16147969D01*
X1561228Y16161054D01*
X1556351Y16174683D01*
X1552834Y16188724D01*
X1550710Y16203042D01*
X1550000Y16217500D01*
X1550000Y16512500D01*
X1550710Y16526958D01*
X1552834Y16541276D01*
X1556351Y16555317D01*
X1561228Y16568946D01*
X1567417Y16582031D01*
X1574858Y16594447D01*
X1583481Y16606073D01*
X1593202Y16616798D01*
X1603927Y16626519D01*
X1615553Y16635142D01*
X1627969Y16642583D01*
X1641054Y16648772D01*
X1654683Y16653649D01*
X1668724Y16657166D01*
X1683042Y16659290D01*
X1697500Y16660000D01*
X2042500Y16660000D01*
X2056958Y16659290D01*
X2056958Y16659290D01*
G37*
D12*
X1870000Y16365000D03*
G04 #@! TD*
D11*
G04 #@! TO.C,C11*
G36*
X11376958Y-8285710D02*
X11391276Y-8287834D01*
X11405317Y-8291351D01*
X11418946Y-8296228D01*
X11432031Y-8302417D01*
X11444447Y-8309858D01*
X11456073Y-8318481D01*
X11466798Y-8328202D01*
X11476519Y-8338927D01*
X11485142Y-8350553D01*
X11492583Y-8362969D01*
X11498772Y-8376054D01*
X11503649Y-8389683D01*
X11507166Y-8403724D01*
X11509290Y-8418042D01*
X11510000Y-8432500D01*
X11510000Y-8727500D01*
X11509290Y-8741958D01*
X11507166Y-8756276D01*
X11503649Y-8770317D01*
X11498772Y-8783946D01*
X11492583Y-8797031D01*
X11485142Y-8809447D01*
X11476519Y-8821073D01*
X11466798Y-8831798D01*
X11456073Y-8841519D01*
X11444447Y-8850142D01*
X11432031Y-8857583D01*
X11418946Y-8863772D01*
X11405317Y-8868649D01*
X11391276Y-8872166D01*
X11376958Y-8874290D01*
X11362500Y-8875000D01*
X11017500Y-8875000D01*
X11003042Y-8874290D01*
X10988724Y-8872166D01*
X10974683Y-8868649D01*
X10961054Y-8863772D01*
X10947969Y-8857583D01*
X10935553Y-8850142D01*
X10923927Y-8841519D01*
X10913202Y-8831798D01*
X10903481Y-8821073D01*
X10894858Y-8809447D01*
X10887417Y-8797031D01*
X10881228Y-8783946D01*
X10876351Y-8770317D01*
X10872834Y-8756276D01*
X10870710Y-8741958D01*
X10870000Y-8727500D01*
X10870000Y-8432500D01*
X10870710Y-8418042D01*
X10872834Y-8403724D01*
X10876351Y-8389683D01*
X10881228Y-8376054D01*
X10887417Y-8362969D01*
X10894858Y-8350553D01*
X10903481Y-8338927D01*
X10913202Y-8328202D01*
X10923927Y-8318481D01*
X10935553Y-8309858D01*
X10947969Y-8302417D01*
X10961054Y-8296228D01*
X10974683Y-8291351D01*
X10988724Y-8287834D01*
X11003042Y-8285710D01*
X11017500Y-8285000D01*
X11362500Y-8285000D01*
X11376958Y-8285710D01*
X11376958Y-8285710D01*
G37*
D12*
X11190000Y-8580000D03*
D11*
G36*
X11376958Y-9255710D02*
X11391276Y-9257834D01*
X11405317Y-9261351D01*
X11418946Y-9266228D01*
X11432031Y-9272417D01*
X11444447Y-9279858D01*
X11456073Y-9288481D01*
X11466798Y-9298202D01*
X11476519Y-9308927D01*
X11485142Y-9320553D01*
X11492583Y-9332969D01*
X11498772Y-9346054D01*
X11503649Y-9359683D01*
X11507166Y-9373724D01*
X11509290Y-9388042D01*
X11510000Y-9402500D01*
X11510000Y-9697500D01*
X11509290Y-9711958D01*
X11507166Y-9726276D01*
X11503649Y-9740317D01*
X11498772Y-9753946D01*
X11492583Y-9767031D01*
X11485142Y-9779447D01*
X11476519Y-9791073D01*
X11466798Y-9801798D01*
X11456073Y-9811519D01*
X11444447Y-9820142D01*
X11432031Y-9827583D01*
X11418946Y-9833772D01*
X11405317Y-9838649D01*
X11391276Y-9842166D01*
X11376958Y-9844290D01*
X11362500Y-9845000D01*
X11017500Y-9845000D01*
X11003042Y-9844290D01*
X10988724Y-9842166D01*
X10974683Y-9838649D01*
X10961054Y-9833772D01*
X10947969Y-9827583D01*
X10935553Y-9820142D01*
X10923927Y-9811519D01*
X10913202Y-9801798D01*
X10903481Y-9791073D01*
X10894858Y-9779447D01*
X10887417Y-9767031D01*
X10881228Y-9753946D01*
X10876351Y-9740317D01*
X10872834Y-9726276D01*
X10870710Y-9711958D01*
X10870000Y-9697500D01*
X10870000Y-9402500D01*
X10870710Y-9388042D01*
X10872834Y-9373724D01*
X10876351Y-9359683D01*
X10881228Y-9346054D01*
X10887417Y-9332969D01*
X10894858Y-9320553D01*
X10903481Y-9308927D01*
X10913202Y-9298202D01*
X10923927Y-9288481D01*
X10935553Y-9279858D01*
X10947969Y-9272417D01*
X10961054Y-9266228D01*
X10974683Y-9261351D01*
X10988724Y-9257834D01*
X11003042Y-9255710D01*
X11017500Y-9255000D01*
X11362500Y-9255000D01*
X11376958Y-9255710D01*
X11376958Y-9255710D01*
G37*
D12*
X11190000Y-9550000D03*
G04 #@! TD*
D11*
G04 #@! TO.C,C12*
G36*
X-288042Y-1680710D02*
X-273724Y-1682834D01*
X-259683Y-1686351D01*
X-246054Y-1691228D01*
X-232969Y-1697417D01*
X-220553Y-1704858D01*
X-208927Y-1713481D01*
X-198202Y-1723202D01*
X-188481Y-1733927D01*
X-179858Y-1745553D01*
X-172417Y-1757969D01*
X-166228Y-1771054D01*
X-161351Y-1784683D01*
X-157834Y-1798724D01*
X-155710Y-1813042D01*
X-155000Y-1827500D01*
X-155000Y-2172500D01*
X-155710Y-2186958D01*
X-157834Y-2201276D01*
X-161351Y-2215317D01*
X-166228Y-2228946D01*
X-172417Y-2242031D01*
X-179858Y-2254447D01*
X-188481Y-2266073D01*
X-198202Y-2276798D01*
X-208927Y-2286519D01*
X-220553Y-2295142D01*
X-232969Y-2302583D01*
X-246054Y-2308772D01*
X-259683Y-2313649D01*
X-273724Y-2317166D01*
X-288042Y-2319290D01*
X-302500Y-2320000D01*
X-597500Y-2320000D01*
X-611958Y-2319290D01*
X-626276Y-2317166D01*
X-640317Y-2313649D01*
X-653946Y-2308772D01*
X-667031Y-2302583D01*
X-679447Y-2295142D01*
X-691073Y-2286519D01*
X-701798Y-2276798D01*
X-711519Y-2266073D01*
X-720142Y-2254447D01*
X-727583Y-2242031D01*
X-733772Y-2228946D01*
X-738649Y-2215317D01*
X-742166Y-2201276D01*
X-744290Y-2186958D01*
X-745000Y-2172500D01*
X-745000Y-1827500D01*
X-744290Y-1813042D01*
X-742166Y-1798724D01*
X-738649Y-1784683D01*
X-733772Y-1771054D01*
X-727583Y-1757969D01*
X-720142Y-1745553D01*
X-711519Y-1733927D01*
X-701798Y-1723202D01*
X-691073Y-1713481D01*
X-679447Y-1704858D01*
X-667031Y-1697417D01*
X-653946Y-1691228D01*
X-640317Y-1686351D01*
X-626276Y-1682834D01*
X-611958Y-1680710D01*
X-597500Y-1680000D01*
X-302500Y-1680000D01*
X-288042Y-1680710D01*
X-288042Y-1680710D01*
G37*
D12*
X-450000Y-2000000D03*
D11*
G36*
X681958Y-1680710D02*
X696276Y-1682834D01*
X710317Y-1686351D01*
X723946Y-1691228D01*
X737031Y-1697417D01*
X749447Y-1704858D01*
X761073Y-1713481D01*
X771798Y-1723202D01*
X781519Y-1733927D01*
X790142Y-1745553D01*
X797583Y-1757969D01*
X803772Y-1771054D01*
X808649Y-1784683D01*
X812166Y-1798724D01*
X814290Y-1813042D01*
X815000Y-1827500D01*
X815000Y-2172500D01*
X814290Y-2186958D01*
X812166Y-2201276D01*
X808649Y-2215317D01*
X803772Y-2228946D01*
X797583Y-2242031D01*
X790142Y-2254447D01*
X781519Y-2266073D01*
X771798Y-2276798D01*
X761073Y-2286519D01*
X749447Y-2295142D01*
X737031Y-2302583D01*
X723946Y-2308772D01*
X710317Y-2313649D01*
X696276Y-2317166D01*
X681958Y-2319290D01*
X667500Y-2320000D01*
X372500Y-2320000D01*
X358042Y-2319290D01*
X343724Y-2317166D01*
X329683Y-2313649D01*
X316054Y-2308772D01*
X302969Y-2302583D01*
X290553Y-2295142D01*
X278927Y-2286519D01*
X268202Y-2276798D01*
X258481Y-2266073D01*
X249858Y-2254447D01*
X242417Y-2242031D01*
X236228Y-2228946D01*
X231351Y-2215317D01*
X227834Y-2201276D01*
X225710Y-2186958D01*
X225000Y-2172500D01*
X225000Y-1827500D01*
X225710Y-1813042D01*
X227834Y-1798724D01*
X231351Y-1784683D01*
X236228Y-1771054D01*
X242417Y-1757969D01*
X249858Y-1745553D01*
X258481Y-1733927D01*
X268202Y-1723202D01*
X278927Y-1713481D01*
X290553Y-1704858D01*
X302969Y-1697417D01*
X316054Y-1691228D01*
X329683Y-1686351D01*
X343724Y-1682834D01*
X358042Y-1680710D01*
X372500Y-1680000D01*
X667500Y-1680000D01*
X681958Y-1680710D01*
X681958Y-1680710D01*
G37*
D12*
X520000Y-2000000D03*
G04 #@! TD*
D11*
G04 #@! TO.C,C14*
G36*
X11476958Y9634290D02*
X11491276Y9632166D01*
X11505317Y9628649D01*
X11518946Y9623772D01*
X11532031Y9617583D01*
X11544447Y9610142D01*
X11556073Y9601519D01*
X11566798Y9591798D01*
X11576519Y9581073D01*
X11585142Y9569447D01*
X11592583Y9557031D01*
X11598772Y9543946D01*
X11603649Y9530317D01*
X11607166Y9516276D01*
X11609290Y9501958D01*
X11610000Y9487500D01*
X11610000Y9192500D01*
X11609290Y9178042D01*
X11607166Y9163724D01*
X11603649Y9149683D01*
X11598772Y9136054D01*
X11592583Y9122969D01*
X11585142Y9110553D01*
X11576519Y9098927D01*
X11566798Y9088202D01*
X11556073Y9078481D01*
X11544447Y9069858D01*
X11532031Y9062417D01*
X11518946Y9056228D01*
X11505317Y9051351D01*
X11491276Y9047834D01*
X11476958Y9045710D01*
X11462500Y9045000D01*
X11117500Y9045000D01*
X11103042Y9045710D01*
X11088724Y9047834D01*
X11074683Y9051351D01*
X11061054Y9056228D01*
X11047969Y9062417D01*
X11035553Y9069858D01*
X11023927Y9078481D01*
X11013202Y9088202D01*
X11003481Y9098927D01*
X10994858Y9110553D01*
X10987417Y9122969D01*
X10981228Y9136054D01*
X10976351Y9149683D01*
X10972834Y9163724D01*
X10970710Y9178042D01*
X10970000Y9192500D01*
X10970000Y9487500D01*
X10970710Y9501958D01*
X10972834Y9516276D01*
X10976351Y9530317D01*
X10981228Y9543946D01*
X10987417Y9557031D01*
X10994858Y9569447D01*
X11003481Y9581073D01*
X11013202Y9591798D01*
X11023927Y9601519D01*
X11035553Y9610142D01*
X11047969Y9617583D01*
X11061054Y9623772D01*
X11074683Y9628649D01*
X11088724Y9632166D01*
X11103042Y9634290D01*
X11117500Y9635000D01*
X11462500Y9635000D01*
X11476958Y9634290D01*
X11476958Y9634290D01*
G37*
D12*
X11290000Y9340000D03*
D11*
G36*
X11476958Y8664290D02*
X11491276Y8662166D01*
X11505317Y8658649D01*
X11518946Y8653772D01*
X11532031Y8647583D01*
X11544447Y8640142D01*
X11556073Y8631519D01*
X11566798Y8621798D01*
X11576519Y8611073D01*
X11585142Y8599447D01*
X11592583Y8587031D01*
X11598772Y8573946D01*
X11603649Y8560317D01*
X11607166Y8546276D01*
X11609290Y8531958D01*
X11610000Y8517500D01*
X11610000Y8222500D01*
X11609290Y8208042D01*
X11607166Y8193724D01*
X11603649Y8179683D01*
X11598772Y8166054D01*
X11592583Y8152969D01*
X11585142Y8140553D01*
X11576519Y8128927D01*
X11566798Y8118202D01*
X11556073Y8108481D01*
X11544447Y8099858D01*
X11532031Y8092417D01*
X11518946Y8086228D01*
X11505317Y8081351D01*
X11491276Y8077834D01*
X11476958Y8075710D01*
X11462500Y8075000D01*
X11117500Y8075000D01*
X11103042Y8075710D01*
X11088724Y8077834D01*
X11074683Y8081351D01*
X11061054Y8086228D01*
X11047969Y8092417D01*
X11035553Y8099858D01*
X11023927Y8108481D01*
X11013202Y8118202D01*
X11003481Y8128927D01*
X10994858Y8140553D01*
X10987417Y8152969D01*
X10981228Y8166054D01*
X10976351Y8179683D01*
X10972834Y8193724D01*
X10970710Y8208042D01*
X10970000Y8222500D01*
X10970000Y8517500D01*
X10970710Y8531958D01*
X10972834Y8546276D01*
X10976351Y8560317D01*
X10981228Y8573946D01*
X10987417Y8587031D01*
X10994858Y8599447D01*
X11003481Y8611073D01*
X11013202Y8621798D01*
X11023927Y8631519D01*
X11035553Y8640142D01*
X11047969Y8647583D01*
X11061054Y8653772D01*
X11074683Y8658649D01*
X11088724Y8662166D01*
X11103042Y8664290D01*
X11117500Y8665000D01*
X11462500Y8665000D01*
X11476958Y8664290D01*
X11476958Y8664290D01*
G37*
D12*
X11290000Y8370000D03*
G04 #@! TD*
D11*
G04 #@! TO.C,C15*
G36*
X-1613042Y599290D02*
X-1598724Y597166D01*
X-1584683Y593649D01*
X-1571054Y588772D01*
X-1557969Y582583D01*
X-1545553Y575142D01*
X-1533927Y566519D01*
X-1523202Y556798D01*
X-1513481Y546073D01*
X-1504858Y534447D01*
X-1497417Y522031D01*
X-1491228Y508946D01*
X-1486351Y495317D01*
X-1482834Y481276D01*
X-1480710Y466958D01*
X-1480000Y452500D01*
X-1480000Y157500D01*
X-1480710Y143042D01*
X-1482834Y128724D01*
X-1486351Y114683D01*
X-1491228Y101054D01*
X-1497417Y87969D01*
X-1504858Y75553D01*
X-1513481Y63927D01*
X-1523202Y53202D01*
X-1533927Y43481D01*
X-1545553Y34858D01*
X-1557969Y27417D01*
X-1571054Y21228D01*
X-1584683Y16351D01*
X-1598724Y12834D01*
X-1613042Y10710D01*
X-1627500Y10000D01*
X-1972500Y10000D01*
X-1986958Y10710D01*
X-2001276Y12834D01*
X-2015317Y16351D01*
X-2028946Y21228D01*
X-2042031Y27417D01*
X-2054447Y34858D01*
X-2066073Y43481D01*
X-2076798Y53202D01*
X-2086519Y63927D01*
X-2095142Y75553D01*
X-2102583Y87969D01*
X-2108772Y101054D01*
X-2113649Y114683D01*
X-2117166Y128724D01*
X-2119290Y143042D01*
X-2120000Y157500D01*
X-2120000Y452500D01*
X-2119290Y466958D01*
X-2117166Y481276D01*
X-2113649Y495317D01*
X-2108772Y508946D01*
X-2102583Y522031D01*
X-2095142Y534447D01*
X-2086519Y546073D01*
X-2076798Y556798D01*
X-2066073Y566519D01*
X-2054447Y575142D01*
X-2042031Y582583D01*
X-2028946Y588772D01*
X-2015317Y593649D01*
X-2001276Y597166D01*
X-1986958Y599290D01*
X-1972500Y600000D01*
X-1627500Y600000D01*
X-1613042Y599290D01*
X-1613042Y599290D01*
G37*
D12*
X-1800000Y305000D03*
D11*
G36*
X-1613042Y-370710D02*
X-1598724Y-372834D01*
X-1584683Y-376351D01*
X-1571054Y-381228D01*
X-1557969Y-387417D01*
X-1545553Y-394858D01*
X-1533927Y-403481D01*
X-1523202Y-413202D01*
X-1513481Y-423927D01*
X-1504858Y-435553D01*
X-1497417Y-447969D01*
X-1491228Y-461054D01*
X-1486351Y-474683D01*
X-1482834Y-488724D01*
X-1480710Y-503042D01*
X-1480000Y-517500D01*
X-1480000Y-812500D01*
X-1480710Y-826958D01*
X-1482834Y-841276D01*
X-1486351Y-855317D01*
X-1491228Y-868946D01*
X-1497417Y-882031D01*
X-1504858Y-894447D01*
X-1513481Y-906073D01*
X-1523202Y-916798D01*
X-1533927Y-926519D01*
X-1545553Y-935142D01*
X-1557969Y-942583D01*
X-1571054Y-948772D01*
X-1584683Y-953649D01*
X-1598724Y-957166D01*
X-1613042Y-959290D01*
X-1627500Y-960000D01*
X-1972500Y-960000D01*
X-1986958Y-959290D01*
X-2001276Y-957166D01*
X-2015317Y-953649D01*
X-2028946Y-948772D01*
X-2042031Y-942583D01*
X-2054447Y-935142D01*
X-2066073Y-926519D01*
X-2076798Y-916798D01*
X-2086519Y-906073D01*
X-2095142Y-894447D01*
X-2102583Y-882031D01*
X-2108772Y-868946D01*
X-2113649Y-855317D01*
X-2117166Y-841276D01*
X-2119290Y-826958D01*
X-2120000Y-812500D01*
X-2120000Y-517500D01*
X-2119290Y-503042D01*
X-2117166Y-488724D01*
X-2113649Y-474683D01*
X-2108772Y-461054D01*
X-2102583Y-447969D01*
X-2095142Y-435553D01*
X-2086519Y-423927D01*
X-2076798Y-413202D01*
X-2066073Y-403481D01*
X-2054447Y-394858D01*
X-2042031Y-387417D01*
X-2028946Y-381228D01*
X-2015317Y-376351D01*
X-2001276Y-372834D01*
X-1986958Y-370710D01*
X-1972500Y-370000D01*
X-1627500Y-370000D01*
X-1613042Y-370710D01*
X-1613042Y-370710D01*
G37*
D12*
X-1800000Y-665000D03*
G04 #@! TD*
M02*
