G04 #@! TF.GenerationSoftware,KiCad,Pcbnew,5.0.1-33cea8e~67~ubuntu16.04.1*
G04 #@! TF.CreationDate,2018-10-18T10:50:00-04:00*
G04 #@! TF.ProjectId,MQP Kat Foot Sensors,4D5150204B617420466F6F742053656E,rev?*
G04 #@! TF.SameCoordinates,Original*
G04 #@! TF.FileFunction,Legend,Top*
G04 #@! TF.FilePolarity,Positive*
%FSLAX46Y46*%
G04 Gerber Fmt 4.6, Leading zero omitted, Abs format (unit mm)*
G04 Created by KiCad (PCBNEW 5.0.1-33cea8e~67~ubuntu16.04.1) date Thu 18 Oct 2018 10:50:00 AM EDT*
%MOMM*%
%LPD*%
G01*
G04 APERTURE LIST*
%ADD10C,0.125000*%
%ADD11C,0.200000*%
%ADD12C,0.150000*%
%ADD13C,0.120000*%
%ADD14C,0.050000*%
G04 APERTURE END LIST*
D10*
X-5036184Y-12641619D02*
X-5109225Y-12146983D01*
X-4753534Y-12599881D02*
X-5007259Y-12348535D01*
X-4826576Y-12105245D02*
X-5067487Y-12429632D01*
X-4356593Y-12517198D02*
X-4400223Y-12547708D01*
X-4494439Y-12561621D01*
X-4545026Y-12545023D01*
X-4575536Y-12501393D01*
X-4603361Y-12312960D01*
X-4586764Y-12262374D01*
X-4543134Y-12231864D01*
X-4448917Y-12217951D01*
X-4398331Y-12234549D01*
X-4367820Y-12278179D01*
X-4360864Y-12325287D01*
X-4589449Y-12407177D01*
X-4117574Y-12505970D02*
X-4166268Y-12176213D01*
X-4190615Y-12011334D02*
X-4210691Y-12038367D01*
X-4183659Y-12058442D01*
X-4163583Y-12031410D01*
X-4190615Y-12011334D01*
X-4183659Y-12058442D01*
X-3811370Y-12460754D02*
X-3861957Y-12444156D01*
X-3888989Y-12424081D01*
X-3919499Y-12380451D01*
X-3940368Y-12239126D01*
X-3923771Y-12188540D01*
X-3903695Y-12161507D01*
X-3860065Y-12130997D01*
X-3789402Y-12120562D01*
X-3738816Y-12137160D01*
X-3711784Y-12157236D01*
X-3681273Y-12200866D01*
X-3660404Y-12342191D01*
X-3677002Y-12392777D01*
X-3697078Y-12419809D01*
X-3740708Y-12450320D01*
X-3811370Y-12460754D01*
X-3483199Y-12075346D02*
X-3434505Y-12405104D01*
X-3476243Y-12122454D02*
X-3456167Y-12095422D01*
X-3412537Y-12064912D01*
X-3341874Y-12054477D01*
X-3291288Y-12071075D01*
X-3260778Y-12114705D01*
X-3222518Y-12373800D01*
X-2483492Y-11999925D02*
X-2409352Y-12013045D01*
X-2382319Y-12033121D01*
X-2351809Y-12076751D01*
X-2341374Y-12147413D01*
X-2357972Y-12198000D01*
X-2378048Y-12225032D01*
X-2421678Y-12255542D01*
X-2610111Y-12283368D01*
X-2683153Y-11788732D01*
X-2518274Y-11764384D01*
X-2467687Y-11780982D01*
X-2440655Y-11801058D01*
X-2410145Y-11844688D01*
X-2403188Y-11891796D01*
X-2419786Y-11942383D01*
X-2439862Y-11969415D01*
X-2483492Y-11999925D01*
X-2648371Y-12024273D01*
X-2115475Y-12210326D02*
X-2164169Y-11880569D01*
X-2188516Y-11715690D02*
X-2208592Y-11742722D01*
X-2181560Y-11762798D01*
X-2161484Y-11735766D01*
X-2188516Y-11715690D01*
X-2181560Y-11762798D01*
X-1906966Y-12155469D02*
X-1856380Y-12172066D01*
X-1762163Y-12158154D01*
X-1718533Y-12127643D01*
X-1701936Y-12077057D01*
X-1705414Y-12053503D01*
X-1735924Y-12009873D01*
X-1786511Y-11993275D01*
X-1857173Y-12003709D01*
X-1907759Y-11987112D01*
X-1938270Y-11943482D01*
X-1941748Y-11919928D01*
X-1925150Y-11869341D01*
X-1881520Y-11838831D01*
X-1810858Y-11828396D01*
X-1760271Y-11844994D01*
X-1408852Y-12105981D02*
X-1459438Y-12089383D01*
X-1489949Y-12045753D01*
X-1552556Y-11621780D01*
X-1008432Y-12046852D02*
X-1046692Y-11787757D01*
X-1077202Y-11744127D01*
X-1127789Y-11727529D01*
X-1222005Y-11741442D01*
X-1265635Y-11771953D01*
X-1011910Y-12023298D02*
X-1055540Y-12053809D01*
X-1173311Y-12071200D01*
X-1223897Y-12054602D01*
X-1254408Y-12010972D01*
X-1261364Y-11963864D01*
X-1244766Y-11913277D01*
X-1201136Y-11882767D01*
X-1083366Y-11865376D01*
X-1039736Y-11834865D01*
X-821585Y-11682313D02*
X-772891Y-12012071D01*
X-814629Y-11729421D02*
X-794553Y-11702389D01*
X-750923Y-11671879D01*
X-680261Y-11661444D01*
X-629674Y-11678042D01*
X-599164Y-11721672D01*
X-560904Y-11980767D01*
X-113376Y-11914682D02*
X-186418Y-11420046D01*
X-116854Y-11891128D02*
X-160484Y-11921638D01*
X-254701Y-11935551D01*
X-305287Y-11918953D01*
X-332319Y-11898877D01*
X-362830Y-11855247D01*
X-383699Y-11713923D01*
X-367101Y-11663336D01*
X-347025Y-11636304D01*
X-303395Y-11605794D01*
X-209179Y-11591881D01*
X-158592Y-11608479D01*
X-4710530Y-12972597D02*
X-4307731Y-13418539D01*
X-4380773Y-12923903D02*
X-4637489Y-13467233D01*
X-3907311Y-13359410D02*
X-3945571Y-13100315D01*
X-3976082Y-13056685D01*
X-4026668Y-13040087D01*
X-4120884Y-13054000D01*
X-4164514Y-13084510D01*
X-3910789Y-13335856D02*
X-3954420Y-13366366D01*
X-4072190Y-13383757D01*
X-4122776Y-13367159D01*
X-4153287Y-13323529D01*
X-4160243Y-13276421D01*
X-4143645Y-13225835D01*
X-4100015Y-13195324D01*
X-3982245Y-13177933D01*
X-3938615Y-13147423D01*
X-3767573Y-13001827D02*
X-3601108Y-13314194D01*
X-3532032Y-12967045D01*
X-3294905Y-13268978D02*
X-3343599Y-12939220D01*
X-3367946Y-12774341D02*
X-3388022Y-12801374D01*
X-3360990Y-12821450D01*
X-3340914Y-12794417D01*
X-3367946Y-12774341D01*
X-3360990Y-12821450D01*
X-2874409Y-13182816D02*
X-2918039Y-13213327D01*
X-3012255Y-13227239D01*
X-3062842Y-13210642D01*
X-3093352Y-13167012D01*
X-3121178Y-12978579D01*
X-3104580Y-12927992D01*
X-3060950Y-12897482D01*
X-2966733Y-12883569D01*
X-2916147Y-12900167D01*
X-2885637Y-12943797D01*
X-2878680Y-12990905D01*
X-3107265Y-13072795D01*
X-2635390Y-13171589D02*
X-2684084Y-12841831D01*
X-2670171Y-12936048D02*
X-2653574Y-12885461D01*
X-2633498Y-12858429D01*
X-2589868Y-12827919D01*
X-2542759Y-12820962D01*
X-1716780Y-13035940D02*
X-1952321Y-13070722D01*
X-2025362Y-12576086D01*
X-1551901Y-13011593D02*
X-1600595Y-12681836D01*
X-1624943Y-12516957D02*
X-1645018Y-12543989D01*
X-1617986Y-12564065D01*
X-1597910Y-12537033D01*
X-1624943Y-12516957D01*
X-1617986Y-12564065D01*
X-1435717Y-12657489D02*
X-1247284Y-12629663D01*
X-1389401Y-12482175D02*
X-1326794Y-12906149D01*
X-1296284Y-12949779D01*
X-1245698Y-12966377D01*
X-1198589Y-12959421D01*
X-1153067Y-12615750D02*
X-964635Y-12587925D01*
X-1106752Y-12440437D02*
X-1044145Y-12864411D01*
X-1013635Y-12908041D01*
X-963048Y-12924639D01*
X-915940Y-12917683D01*
X-680399Y-12882901D02*
X-730986Y-12866303D01*
X-761496Y-12822673D01*
X-824103Y-12398699D01*
X-307012Y-12803696D02*
X-350642Y-12834207D01*
X-444858Y-12848119D01*
X-495445Y-12831521D01*
X-525955Y-12787891D01*
X-553780Y-12599459D01*
X-537183Y-12548872D01*
X-493552Y-12518362D01*
X-399336Y-12504449D01*
X-348750Y-12521047D01*
X-318239Y-12564677D01*
X-311283Y-12611785D01*
X-539868Y-12693675D01*
X-4660082Y-14210651D02*
X-4424541Y-14175870D01*
X-4686321Y-14358932D02*
X-4594484Y-13839949D01*
X-4356564Y-14310238D01*
X-4121023Y-14275456D02*
X-4171609Y-14258859D01*
X-4202120Y-14215228D01*
X-4264727Y-13791255D01*
X-3747635Y-14196252D02*
X-3791265Y-14226762D01*
X-3885482Y-14240675D01*
X-3936068Y-14224077D01*
X-3966579Y-14180447D01*
X-3994404Y-13992014D01*
X-3977806Y-13941428D01*
X-3934176Y-13910917D01*
X-3839960Y-13897004D01*
X-3789373Y-13913602D01*
X-3758863Y-13957232D01*
X-3751907Y-14004341D01*
X-3980491Y-14086230D01*
X-3555724Y-14191980D02*
X-3345324Y-13823963D01*
X-3604419Y-13862223D02*
X-3296629Y-14153720D01*
X-2875035Y-13586043D02*
X-2592385Y-13544305D01*
X-2660668Y-14059810D02*
X-2733710Y-13565174D01*
X-2142478Y-13983290D02*
X-2180738Y-13724195D01*
X-2211248Y-13680565D01*
X-2261835Y-13663967D01*
X-2356051Y-13677880D01*
X-2399681Y-13708390D01*
X-2145956Y-13959736D02*
X-2189586Y-13990247D01*
X-2307357Y-14007637D01*
X-2357943Y-13991040D01*
X-2388454Y-13947410D01*
X-2395410Y-13900301D01*
X-2378812Y-13849715D01*
X-2335182Y-13819205D01*
X-2217412Y-13801814D01*
X-2173782Y-13771303D01*
X-1698428Y-13893651D02*
X-1742058Y-13924161D01*
X-1836275Y-13938074D01*
X-1886861Y-13921476D01*
X-1913893Y-13901400D01*
X-1944404Y-13857770D01*
X-1965273Y-13716446D01*
X-1948675Y-13665859D01*
X-1928599Y-13638827D01*
X-1884969Y-13608317D01*
X-1790753Y-13594404D01*
X-1740166Y-13611002D01*
X-1298009Y-13834522D02*
X-1341639Y-13865033D01*
X-1435855Y-13878945D01*
X-1486441Y-13862347D01*
X-1516952Y-13818717D01*
X-1544777Y-13630285D01*
X-1528179Y-13579698D01*
X-1484549Y-13549188D01*
X-1390333Y-13535275D01*
X-1339747Y-13551873D01*
X-1309236Y-13595503D01*
X-1302280Y-13642611D01*
X-1530865Y-13724501D01*
X-1086022Y-13803219D02*
X-1035435Y-13819816D01*
X-941219Y-13805904D01*
X-897589Y-13775393D01*
X-880991Y-13724807D01*
X-884469Y-13701253D01*
X-914980Y-13657623D01*
X-965566Y-13641025D01*
X-1036228Y-13651459D01*
X-1086815Y-13634862D01*
X-1117325Y-13591232D01*
X-1120803Y-13567678D01*
X-1104206Y-13517091D01*
X-1060576Y-13486581D01*
X-989913Y-13476146D01*
X-939327Y-13492744D01*
X-450061Y-13709308D02*
X-493691Y-13739819D01*
X-587907Y-13753731D01*
X-638494Y-13737133D01*
X-665526Y-13717057D01*
X-696036Y-13673427D01*
X-716905Y-13532103D01*
X-700308Y-13481516D01*
X-680232Y-13454484D01*
X-636602Y-13423974D01*
X-542385Y-13410061D01*
X-491799Y-13426659D01*
X-71303Y-13340498D02*
X-22609Y-13670255D01*
X-283290Y-13371801D02*
X-245030Y-13630896D01*
X-214520Y-13674526D01*
X-163933Y-13691124D01*
X-93271Y-13680690D01*
X-49641Y-13650179D01*
X-29565Y-13623147D01*
D11*
X-4355336Y-5936816D02*
X-4213703Y-6022710D01*
X-3958306Y-6080734D01*
X-3844543Y-6052865D01*
X-3781859Y-6013391D01*
X-3707570Y-5922837D01*
X-3684360Y-5820678D01*
X-3712229Y-5706915D01*
X-3751704Y-5644231D01*
X-3842257Y-5569942D01*
X-4034969Y-5472443D01*
X-4125523Y-5398154D01*
X-4164997Y-5335470D01*
X-4192867Y-5221706D01*
X-4169657Y-5119548D01*
X-4095368Y-5028994D01*
X-4032684Y-4989520D01*
X-3918920Y-4961650D01*
X-3663524Y-5019675D01*
X-3521891Y-5105569D01*
X-3294276Y-6231598D02*
X-3131807Y-5516489D01*
X-3155017Y-5618647D02*
X-3092333Y-5579173D01*
X-2978570Y-5551303D01*
X-2825332Y-5586118D01*
X-2734778Y-5660407D01*
X-2706909Y-5774171D01*
X-2834563Y-6336043D01*
X-2706909Y-5774171D02*
X-2632620Y-5683617D01*
X-2518856Y-5655748D01*
X-2365618Y-5690563D01*
X-2275065Y-5764852D01*
X-2247195Y-5878615D01*
X-2374850Y-6440487D01*
X-1404344Y-6660980D02*
X-1276690Y-6099109D01*
X-1304559Y-5985345D01*
X-1395113Y-5911056D01*
X-1599430Y-5864636D01*
X-1713193Y-5892506D01*
X-1392739Y-6609901D02*
X-1506502Y-6637770D01*
X-1761899Y-6579746D01*
X-1852452Y-6505457D01*
X-1880322Y-6391693D01*
X-1857112Y-6289535D01*
X-1782823Y-6198981D01*
X-1669059Y-6171112D01*
X-1413663Y-6229136D01*
X-1299900Y-6201267D01*
X-740314Y-6811844D02*
X-830867Y-6737555D01*
X-858737Y-6623792D01*
X-649848Y-5704365D01*
X-178442Y-6939498D02*
X-268995Y-6865209D01*
X-296865Y-6751446D01*
X-87976Y-5832019D01*
X230191Y-7032338D02*
X473895Y-5959674D01*
X843142Y-7171597D02*
X522688Y-6454202D01*
X1086846Y-6098933D02*
X334636Y-6572625D01*
X1762569Y-7380485D02*
X1890223Y-6818614D01*
X1862353Y-6704850D01*
X1771800Y-6630561D01*
X1567483Y-6584141D01*
X1453719Y-6612011D01*
X1774174Y-7329406D02*
X1660410Y-7357276D01*
X1405014Y-7299251D01*
X1314460Y-7224962D01*
X1286591Y-7111198D01*
X1309801Y-7009040D01*
X1384090Y-6918486D01*
X1497853Y-6890617D01*
X1753250Y-6948642D01*
X1867013Y-6920772D01*
X2282592Y-6746610D02*
X2691226Y-6839450D01*
X2517065Y-6423870D02*
X2308176Y-7343297D01*
X2336045Y-7457060D01*
X2426599Y-7531349D01*
X2528758Y-7554559D01*
X3703580Y-7821472D02*
X3947284Y-6748808D01*
X4130765Y-7596231D01*
X4662393Y-6911277D01*
X4418690Y-7983941D01*
X5621382Y-8364618D02*
X5530828Y-8290329D01*
X5451880Y-8164961D01*
X5333457Y-7976908D01*
X5242903Y-7902619D01*
X5140745Y-7879409D01*
X5133799Y-8146410D02*
X5043246Y-8072121D01*
X4964297Y-7946753D01*
X4959638Y-7730831D01*
X5040872Y-7373276D01*
X5138371Y-7180564D01*
X5263739Y-7101615D01*
X5377503Y-7073746D01*
X5581820Y-7120166D01*
X5672373Y-7194455D01*
X5751322Y-7319823D01*
X5755982Y-7535745D01*
X5674747Y-7893300D01*
X5577248Y-8086012D01*
X5451880Y-8164961D01*
X5338116Y-8192830D01*
X5133799Y-8146410D01*
X6053226Y-8355299D02*
X6296929Y-7282635D01*
X6705563Y-7375474D01*
X6796117Y-7449763D01*
X6835591Y-7512447D01*
X6863461Y-7626211D01*
X6828646Y-7779448D01*
X6754357Y-7870002D01*
X6691673Y-7909476D01*
X6577909Y-7937346D01*
X6169275Y-7844506D01*
X-7688367Y-6539556D02*
X-8045922Y-6458322D01*
X-8173576Y-7020194D02*
X-7929872Y-5947529D01*
X-7419080Y-6063579D01*
X-7100911Y-7263897D02*
X-7191465Y-7189608D01*
X-7230939Y-7126924D01*
X-7258809Y-7013160D01*
X-7189179Y-6706685D01*
X-7114890Y-6616131D01*
X-7052206Y-6576657D01*
X-6938443Y-6548787D01*
X-6785205Y-6583602D01*
X-6694651Y-6657891D01*
X-6655177Y-6720575D01*
X-6627307Y-6834339D01*
X-6696937Y-7140814D01*
X-6771226Y-7231368D01*
X-6833910Y-7270842D01*
X-6947674Y-7298712D01*
X-7100911Y-7263897D01*
X-6130406Y-7484390D02*
X-6220959Y-7410101D01*
X-6260434Y-7347417D01*
X-6288303Y-7233654D01*
X-6218673Y-6927178D01*
X-6144384Y-6836625D01*
X-6081700Y-6797150D01*
X-5967937Y-6769281D01*
X-5814699Y-6804096D01*
X-5724145Y-6878385D01*
X-5684671Y-6941069D01*
X-5656802Y-7054832D01*
X-5726431Y-7361308D01*
X-5800720Y-7451862D01*
X-5863404Y-7491336D01*
X-5977168Y-7519205D01*
X-6130406Y-7484390D01*
X-5303906Y-6920145D02*
X-4895272Y-7012984D01*
X-5069434Y-6597405D02*
X-5278323Y-7516831D01*
X-5250453Y-7630595D01*
X-5159900Y-7704884D01*
X-5057741Y-7728094D01*
X-3882919Y-7995007D02*
X-3639215Y-6922343D01*
X-3230581Y-7015182D01*
X-3140028Y-7089471D01*
X-3100553Y-7152155D01*
X-3072684Y-7265919D01*
X-3107499Y-7419157D01*
X-3181788Y-7509710D01*
X-3244472Y-7549184D01*
X-3358235Y-7577054D01*
X-3766869Y-7484214D01*
X-2810254Y-8238710D02*
X-2647785Y-7523601D01*
X-2694205Y-7727918D02*
X-2619916Y-7637364D01*
X-2557232Y-7597890D01*
X-2443468Y-7570021D01*
X-2341310Y-7593230D01*
X-1725985Y-8431334D02*
X-1839748Y-8459204D01*
X-2044065Y-8412784D01*
X-2134619Y-8338495D01*
X-2162488Y-8224732D01*
X-2069649Y-7816098D01*
X-1995360Y-7725544D01*
X-1881597Y-7697675D01*
X-1677280Y-7744094D01*
X-1586726Y-7818383D01*
X-1558857Y-7932147D01*
X-1582066Y-8034305D01*
X-2116069Y-8020415D01*
X-1266272Y-8535779D02*
X-1175718Y-8610068D01*
X-971401Y-8656488D01*
X-857638Y-8628618D01*
X-783349Y-8538065D01*
X-771744Y-8486985D01*
X-799613Y-8373222D01*
X-890167Y-8298933D01*
X-1043404Y-8264118D01*
X-1133958Y-8189829D01*
X-1161827Y-8076065D01*
X-1150223Y-8024986D01*
X-1075933Y-7934433D01*
X-962170Y-7906563D01*
X-808932Y-7941378D01*
X-718379Y-8015667D01*
X-397924Y-8733062D02*
X-307371Y-8807352D01*
X-103054Y-8853771D01*
X10709Y-8825902D01*
X84998Y-8735348D01*
X96603Y-8684269D01*
X68733Y-8570506D01*
X-21819Y-8496216D01*
X-175057Y-8461402D01*
X-265611Y-8387113D01*
X-293480Y-8273349D01*
X-281875Y-8222270D01*
X-207586Y-8131716D01*
X-93823Y-8103847D01*
X59414Y-8138662D01*
X149968Y-8212951D01*
X1132078Y-8382365D02*
X969609Y-9097475D01*
X672365Y-8277921D02*
X544711Y-8839792D01*
X572580Y-8953556D01*
X663134Y-9027845D01*
X816372Y-9062660D01*
X930135Y-9034790D01*
X992819Y-8995316D01*
X1480402Y-9213524D02*
X1642871Y-8498414D01*
X1596451Y-8702731D02*
X1670740Y-8612178D01*
X1733424Y-8572703D01*
X1847188Y-8544834D01*
X1949346Y-8568044D01*
X2564671Y-9406148D02*
X2450908Y-9434017D01*
X2246591Y-9387598D01*
X2156037Y-9313308D01*
X2128168Y-9199545D01*
X2221007Y-8790911D01*
X2295296Y-8700357D01*
X2409060Y-8672488D01*
X2613377Y-8718908D01*
X2703930Y-8793197D01*
X2731800Y-8906960D01*
X2708590Y-9009119D01*
X2174587Y-8995228D01*
X3841652Y-9696271D02*
X3983285Y-9782165D01*
X4238682Y-9840190D01*
X4352445Y-9812320D01*
X4415129Y-9772846D01*
X4489418Y-9682292D01*
X4512628Y-9580134D01*
X4484759Y-9466370D01*
X4445284Y-9403686D01*
X4354731Y-9329397D01*
X4162019Y-9231898D01*
X4071465Y-9157609D01*
X4031991Y-9094925D01*
X4004121Y-8981161D01*
X4027331Y-8879003D01*
X4101620Y-8788449D01*
X4164304Y-8748975D01*
X4278068Y-8721106D01*
X4533464Y-8779130D01*
X4675097Y-8865024D01*
X5322951Y-10032814D02*
X5209187Y-10060683D01*
X5004870Y-10014263D01*
X4914317Y-9939974D01*
X4886447Y-9826211D01*
X4979287Y-9417577D01*
X5053576Y-9327023D01*
X5167339Y-9299154D01*
X5371656Y-9345573D01*
X5462210Y-9419863D01*
X5490079Y-9533626D01*
X5466869Y-9635785D01*
X4932867Y-9621894D01*
X5984607Y-9484833D02*
X5822138Y-10199942D01*
X5961397Y-9586991D02*
X6024082Y-9547517D01*
X6137845Y-9519647D01*
X6291083Y-9554462D01*
X6381636Y-9628751D01*
X6409506Y-9742515D01*
X6281852Y-10304386D01*
X6753170Y-10357751D02*
X6843723Y-10432040D01*
X7048040Y-10478460D01*
X7161804Y-10450591D01*
X7236093Y-10360037D01*
X7247698Y-10308958D01*
X7219828Y-10195195D01*
X7129275Y-10120905D01*
X6976037Y-10086091D01*
X6885483Y-10011802D01*
X6857614Y-9898038D01*
X6869219Y-9846959D01*
X6943508Y-9756405D01*
X7057271Y-9728536D01*
X7210509Y-9763351D01*
X7301063Y-9837640D01*
X7814229Y-10652534D02*
X7723676Y-10578245D01*
X7684201Y-10515561D01*
X7656332Y-10401797D01*
X7725961Y-10095322D01*
X7800250Y-10004768D01*
X7862935Y-9965294D01*
X7976698Y-9937424D01*
X8129936Y-9972239D01*
X8220489Y-10046528D01*
X8259964Y-10109212D01*
X8287833Y-10222976D01*
X8218204Y-10529451D01*
X8143914Y-10620005D01*
X8081230Y-10659479D01*
X7967467Y-10687349D01*
X7814229Y-10652534D01*
X8631497Y-10838213D02*
X8793966Y-10123103D01*
X8747546Y-10327420D02*
X8821835Y-10236867D01*
X8884520Y-10197392D01*
X8998283Y-10169523D01*
X9100442Y-10192733D01*
X9256053Y-10926393D02*
X9346607Y-11000682D01*
X9550924Y-11047101D01*
X9664687Y-11019232D01*
X9738976Y-10928678D01*
X9750581Y-10877599D01*
X9722712Y-10763836D01*
X9632158Y-10689547D01*
X9478920Y-10654732D01*
X9388367Y-10580443D01*
X9360497Y-10466679D01*
X9372102Y-10415600D01*
X9446391Y-10325046D01*
X9560155Y-10297177D01*
X9713393Y-10331992D01*
X9803946Y-10406281D01*
X-1125870Y-10518538D02*
X-1367375Y-9926511D01*
X-1738821Y-10379279D02*
X-1495118Y-9306615D01*
X-1086484Y-9399454D01*
X-995930Y-9473743D01*
X-956456Y-9536427D01*
X-928586Y-9650191D01*
X-963401Y-9803429D01*
X-1037690Y-9893982D01*
X-1100374Y-9933457D01*
X-1214138Y-9961326D01*
X-1622772Y-9868487D01*
X-245918Y-10664743D02*
X-359681Y-10692612D01*
X-563998Y-10646192D01*
X-654552Y-10571903D01*
X-682421Y-10458140D01*
X-589582Y-10049506D01*
X-515293Y-9958952D01*
X-401529Y-9931083D01*
X-197212Y-9977502D01*
X-106659Y-10051792D01*
X-78789Y-10165555D01*
X-101999Y-10267713D01*
X-636001Y-10253823D01*
X313579Y-10093552D02*
X406507Y-10866686D01*
X824372Y-10209601D01*
X2449677Y-11330883D02*
X1836726Y-11191624D01*
X2143201Y-11261253D02*
X2386905Y-10188589D01*
X2249931Y-10318617D01*
X2124563Y-10397565D01*
X2010799Y-10425435D01*
D12*
G04 #@! TO.C,U1*
X2575000Y11275000D02*
X2575000Y10750000D01*
X-2675000Y6025000D02*
X-2675000Y6550000D01*
X2575000Y6025000D02*
X2575000Y6550000D01*
X-2675000Y11275000D02*
X-2150000Y11275000D01*
X-2675000Y6025000D02*
X-2150000Y6025000D01*
X2575000Y6025000D02*
X2050000Y6025000D01*
X2575000Y11275000D02*
X2050000Y11275000D01*
D13*
G04 #@! TO.C,J1*
X8110000Y-90000D02*
X8110000Y2560000D01*
X8110000Y2560000D02*
X5760000Y2560000D01*
X5760000Y2560000D02*
X5760000Y3950000D01*
X-8110000Y-90000D02*
X-8110000Y2560000D01*
X-8110000Y2560000D02*
X-5760000Y2560000D01*
X8000000Y-4510000D02*
X-8000000Y-4510000D01*
G04 #@! TO.C,U2*
X-11240000Y5600000D02*
X-13040000Y5600000D01*
X-13040000Y2380000D02*
X-10590000Y2380000D01*
G04 #@! TO.C,REF\002A\002A*
D12*
X21526666Y1767619D02*
X21193333Y2243809D01*
X20955238Y1767619D02*
X20955238Y2767619D01*
X21336190Y2767619D01*
X21431428Y2720000D01*
X21479047Y2672380D01*
X21526666Y2577142D01*
X21526666Y2434285D01*
X21479047Y2339047D01*
X21431428Y2291428D01*
X21336190Y2243809D01*
X20955238Y2243809D01*
X21955238Y2291428D02*
X22288571Y2291428D01*
X22431428Y1767619D02*
X21955238Y1767619D01*
X21955238Y2767619D01*
X22431428Y2767619D01*
X23193333Y2291428D02*
X22860000Y2291428D01*
X22860000Y1767619D02*
X22860000Y2767619D01*
X23336190Y2767619D01*
X23860000Y2767619D02*
X23860000Y2529523D01*
X23621904Y2624761D02*
X23860000Y2529523D01*
X24098095Y2624761D01*
X23717142Y2339047D02*
X23860000Y2529523D01*
X24002857Y2339047D01*
X24621904Y2767619D02*
X24621904Y2529523D01*
X24383809Y2624761D02*
X24621904Y2529523D01*
X24860000Y2624761D01*
X24479047Y2339047D02*
X24621904Y2529523D01*
X24764761Y2339047D01*
G04 #@! TO.C,J2*
D14*
X11968476Y7679333D02*
X12111333Y7679333D01*
X12139904Y7669809D01*
X12158952Y7650761D01*
X12168476Y7622190D01*
X12168476Y7603142D01*
X11987523Y7765047D02*
X11978000Y7774571D01*
X11968476Y7793619D01*
X11968476Y7841238D01*
X11978000Y7860285D01*
X11987523Y7869809D01*
X12006571Y7879333D01*
X12025619Y7879333D01*
X12054190Y7869809D01*
X12168476Y7755523D01*
X12168476Y7879333D01*
G04 #@! TO.C,C3*
X-13068333Y-11711428D02*
X-13077857Y-11720952D01*
X-13106428Y-11730476D01*
X-13125476Y-11730476D01*
X-13154047Y-11720952D01*
X-13173095Y-11701904D01*
X-13182619Y-11682857D01*
X-13192142Y-11644761D01*
X-13192142Y-11616190D01*
X-13182619Y-11578095D01*
X-13173095Y-11559047D01*
X-13154047Y-11540000D01*
X-13125476Y-11530476D01*
X-13106428Y-11530476D01*
X-13077857Y-11540000D01*
X-13068333Y-11549523D01*
X-13001666Y-11530476D02*
X-12877857Y-11530476D01*
X-12944523Y-11606666D01*
X-12915952Y-11606666D01*
X-12896904Y-11616190D01*
X-12887380Y-11625714D01*
X-12877857Y-11644761D01*
X-12877857Y-11692380D01*
X-12887380Y-11711428D01*
X-12896904Y-11720952D01*
X-12915952Y-11730476D01*
X-12973095Y-11730476D01*
X-12992142Y-11720952D01*
X-13001666Y-11711428D01*
G04 #@! TO.C,C5*
X-58333Y-19371428D02*
X-67857Y-19380952D01*
X-96428Y-19390476D01*
X-115476Y-19390476D01*
X-144047Y-19380952D01*
X-163095Y-19361904D01*
X-172619Y-19342857D01*
X-182142Y-19304761D01*
X-182142Y-19276190D01*
X-172619Y-19238095D01*
X-163095Y-19219047D01*
X-144047Y-19200000D01*
X-115476Y-19190476D01*
X-96428Y-19190476D01*
X-67857Y-19200000D01*
X-58333Y-19209523D01*
X122619Y-19190476D02*
X27380Y-19190476D01*
X17857Y-19285714D01*
X27380Y-19276190D01*
X46428Y-19266666D01*
X94047Y-19266666D01*
X113095Y-19276190D01*
X122619Y-19285714D01*
X132142Y-19304761D01*
X132142Y-19352380D01*
X122619Y-19371428D01*
X113095Y-19380952D01*
X94047Y-19390476D01*
X46428Y-19390476D01*
X27380Y-19380952D01*
X17857Y-19371428D01*
G04 #@! TO.C,C7*
X12961666Y-11671428D02*
X12952142Y-11680952D01*
X12923571Y-11690476D01*
X12904523Y-11690476D01*
X12875952Y-11680952D01*
X12856904Y-11661904D01*
X12847380Y-11642857D01*
X12837857Y-11604761D01*
X12837857Y-11576190D01*
X12847380Y-11538095D01*
X12856904Y-11519047D01*
X12875952Y-11500000D01*
X12904523Y-11490476D01*
X12923571Y-11490476D01*
X12952142Y-11500000D01*
X12961666Y-11509523D01*
X13028333Y-11490476D02*
X13161666Y-11490476D01*
X13075952Y-11690476D01*
G04 #@! TO.C,C8*
X-83333Y16788571D02*
X-92857Y16779047D01*
X-121428Y16769523D01*
X-140476Y16769523D01*
X-169047Y16779047D01*
X-188095Y16798095D01*
X-197619Y16817142D01*
X-207142Y16855238D01*
X-207142Y16883809D01*
X-197619Y16921904D01*
X-188095Y16940952D01*
X-169047Y16960000D01*
X-140476Y16969523D01*
X-121428Y16969523D01*
X-92857Y16960000D01*
X-83333Y16950476D01*
X30952Y16883809D02*
X11904Y16893333D01*
X2380Y16902857D01*
X-7142Y16921904D01*
X-7142Y16931428D01*
X2380Y16950476D01*
X11904Y16960000D01*
X30952Y16969523D01*
X69047Y16969523D01*
X88095Y16960000D01*
X97619Y16950476D01*
X107142Y16931428D01*
X107142Y16921904D01*
X97619Y16902857D01*
X88095Y16893333D01*
X69047Y16883809D01*
X30952Y16883809D01*
X11904Y16874285D01*
X2380Y16864761D01*
X-7142Y16845714D01*
X-7142Y16807619D01*
X2380Y16788571D01*
X11904Y16779047D01*
X30952Y16769523D01*
X69047Y16769523D01*
X88095Y16779047D01*
X97619Y16788571D01*
X107142Y16807619D01*
X107142Y16845714D01*
X97619Y16864761D01*
X88095Y16874285D01*
X69047Y16883809D01*
G04 #@! TO.C,C9*
X-15728571Y8881666D02*
X-15719047Y8872142D01*
X-15709523Y8843571D01*
X-15709523Y8824523D01*
X-15719047Y8795952D01*
X-15738095Y8776904D01*
X-15757142Y8767380D01*
X-15795238Y8757857D01*
X-15823809Y8757857D01*
X-15861904Y8767380D01*
X-15880952Y8776904D01*
X-15900000Y8795952D01*
X-15909523Y8824523D01*
X-15909523Y8843571D01*
X-15900000Y8872142D01*
X-15890476Y8881666D01*
X-15709523Y8976904D02*
X-15709523Y9015000D01*
X-15719047Y9034047D01*
X-15728571Y9043571D01*
X-15757142Y9062619D01*
X-15795238Y9072142D01*
X-15871428Y9072142D01*
X-15890476Y9062619D01*
X-15900000Y9053095D01*
X-15909523Y9034047D01*
X-15909523Y8995952D01*
X-15900000Y8976904D01*
X-15890476Y8967380D01*
X-15871428Y8957857D01*
X-15823809Y8957857D01*
X-15804761Y8967380D01*
X-15795238Y8976904D01*
X-15785714Y8995952D01*
X-15785714Y9034047D01*
X-15795238Y9053095D01*
X-15804761Y9062619D01*
X-15823809Y9072142D01*
G04 #@! TO.C,C13*
X12826428Y6148571D02*
X12816904Y6139047D01*
X12788333Y6129523D01*
X12769285Y6129523D01*
X12740714Y6139047D01*
X12721666Y6158095D01*
X12712142Y6177142D01*
X12702619Y6215238D01*
X12702619Y6243809D01*
X12712142Y6281904D01*
X12721666Y6300952D01*
X12740714Y6320000D01*
X12769285Y6329523D01*
X12788333Y6329523D01*
X12816904Y6320000D01*
X12826428Y6310476D01*
X13016904Y6129523D02*
X12902619Y6129523D01*
X12959761Y6129523D02*
X12959761Y6329523D01*
X12940714Y6300952D01*
X12921666Y6281904D01*
X12902619Y6272380D01*
X13083571Y6329523D02*
X13207380Y6329523D01*
X13140714Y6253333D01*
X13169285Y6253333D01*
X13188333Y6243809D01*
X13197857Y6234285D01*
X13207380Y6215238D01*
X13207380Y6167619D01*
X13197857Y6148571D01*
X13188333Y6139047D01*
X13169285Y6129523D01*
X13112142Y6129523D01*
X13093095Y6139047D01*
X13083571Y6148571D01*
G04 #@! TO.C,C16*
X-13163571Y8478571D02*
X-13173095Y8469047D01*
X-13201666Y8459523D01*
X-13220714Y8459523D01*
X-13249285Y8469047D01*
X-13268333Y8488095D01*
X-13277857Y8507142D01*
X-13287380Y8545238D01*
X-13287380Y8573809D01*
X-13277857Y8611904D01*
X-13268333Y8630952D01*
X-13249285Y8650000D01*
X-13220714Y8659523D01*
X-13201666Y8659523D01*
X-13173095Y8650000D01*
X-13163571Y8640476D01*
X-12973095Y8459523D02*
X-13087380Y8459523D01*
X-13030238Y8459523D02*
X-13030238Y8659523D01*
X-13049285Y8630952D01*
X-13068333Y8611904D01*
X-13087380Y8602380D01*
X-12801666Y8659523D02*
X-12839761Y8659523D01*
X-12858809Y8650000D01*
X-12868333Y8640476D01*
X-12887380Y8611904D01*
X-12896904Y8573809D01*
X-12896904Y8497619D01*
X-12887380Y8478571D01*
X-12877857Y8469047D01*
X-12858809Y8459523D01*
X-12820714Y8459523D01*
X-12801666Y8469047D01*
X-12792142Y8478571D01*
X-12782619Y8497619D01*
X-12782619Y8545238D01*
X-12792142Y8564285D01*
X-12801666Y8573809D01*
X-12820714Y8583333D01*
X-12858809Y8583333D01*
X-12877857Y8573809D01*
X-12887380Y8564285D01*
X-12896904Y8545238D01*
G04 #@! TO.C,R1*
X-1568333Y10939523D02*
X-1635000Y11034761D01*
X-1682619Y10939523D02*
X-1682619Y11139523D01*
X-1606428Y11139523D01*
X-1587380Y11130000D01*
X-1577857Y11120476D01*
X-1568333Y11101428D01*
X-1568333Y11072857D01*
X-1577857Y11053809D01*
X-1587380Y11044285D01*
X-1606428Y11034761D01*
X-1682619Y11034761D01*
X-1377857Y10939523D02*
X-1492142Y10939523D01*
X-1435000Y10939523D02*
X-1435000Y11139523D01*
X-1454047Y11110952D01*
X-1473095Y11091904D01*
X-1492142Y11082380D01*
G04 #@! TO.C,U1*
X-202380Y12509523D02*
X-202380Y12347619D01*
X-192857Y12328571D01*
X-183333Y12319047D01*
X-164285Y12309523D01*
X-126190Y12309523D01*
X-107142Y12319047D01*
X-97619Y12328571D01*
X-88095Y12347619D01*
X-88095Y12509523D01*
X111904Y12309523D02*
X-2380Y12309523D01*
X54761Y12309523D02*
X54761Y12509523D01*
X35714Y12480952D01*
X16666Y12461904D01*
X-2380Y12452380D01*
G04 #@! TO.C,J1*
X-66666Y-5490476D02*
X-66666Y-5633333D01*
X-76190Y-5661904D01*
X-95238Y-5680952D01*
X-123809Y-5690476D01*
X-142857Y-5690476D01*
X133333Y-5690476D02*
X19047Y-5690476D01*
X76190Y-5690476D02*
X76190Y-5490476D01*
X57142Y-5519047D01*
X38095Y-5538095D01*
X19047Y-5547619D01*
G04 #@! TO.C,C17*
X-8398571Y3261428D02*
X-8389047Y3251904D01*
X-8379523Y3223333D01*
X-8379523Y3204285D01*
X-8389047Y3175714D01*
X-8408095Y3156666D01*
X-8427142Y3147142D01*
X-8465238Y3137619D01*
X-8493809Y3137619D01*
X-8531904Y3147142D01*
X-8550952Y3156666D01*
X-8570000Y3175714D01*
X-8579523Y3204285D01*
X-8579523Y3223333D01*
X-8570000Y3251904D01*
X-8560476Y3261428D01*
X-8379523Y3451904D02*
X-8379523Y3337619D01*
X-8379523Y3394761D02*
X-8579523Y3394761D01*
X-8550952Y3375714D01*
X-8531904Y3356666D01*
X-8522380Y3337619D01*
X-8579523Y3518571D02*
X-8579523Y3651904D01*
X-8379523Y3566190D01*
G04 #@! TO.C,C18*
X-13498571Y3361428D02*
X-13489047Y3351904D01*
X-13479523Y3323333D01*
X-13479523Y3304285D01*
X-13489047Y3275714D01*
X-13508095Y3256666D01*
X-13527142Y3247142D01*
X-13565238Y3237619D01*
X-13593809Y3237619D01*
X-13631904Y3247142D01*
X-13650952Y3256666D01*
X-13670000Y3275714D01*
X-13679523Y3304285D01*
X-13679523Y3323333D01*
X-13670000Y3351904D01*
X-13660476Y3361428D01*
X-13479523Y3551904D02*
X-13479523Y3437619D01*
X-13479523Y3494761D02*
X-13679523Y3494761D01*
X-13650952Y3475714D01*
X-13631904Y3456666D01*
X-13622380Y3437619D01*
X-13593809Y3666190D02*
X-13603333Y3647142D01*
X-13612857Y3637619D01*
X-13631904Y3628095D01*
X-13641428Y3628095D01*
X-13660476Y3637619D01*
X-13670000Y3647142D01*
X-13679523Y3666190D01*
X-13679523Y3704285D01*
X-13670000Y3723333D01*
X-13660476Y3732857D01*
X-13641428Y3742380D01*
X-13631904Y3742380D01*
X-13612857Y3732857D01*
X-13603333Y3723333D01*
X-13593809Y3704285D01*
X-13593809Y3666190D01*
X-13584285Y3647142D01*
X-13574761Y3637619D01*
X-13555714Y3628095D01*
X-13517619Y3628095D01*
X-13498571Y3637619D01*
X-13489047Y3647142D01*
X-13479523Y3666190D01*
X-13479523Y3704285D01*
X-13489047Y3723333D01*
X-13498571Y3732857D01*
X-13517619Y3742380D01*
X-13555714Y3742380D01*
X-13574761Y3732857D01*
X-13584285Y3723333D01*
X-13593809Y3704285D01*
G04 #@! TO.C,U2*
X-12292380Y1199523D02*
X-12292380Y1037619D01*
X-12282857Y1018571D01*
X-12273333Y1009047D01*
X-12254285Y999523D01*
X-12216190Y999523D01*
X-12197142Y1009047D01*
X-12187619Y1018571D01*
X-12178095Y1037619D01*
X-12178095Y1199523D01*
X-12092380Y1180476D02*
X-12082857Y1190000D01*
X-12063809Y1199523D01*
X-12016190Y1199523D01*
X-11997142Y1190000D01*
X-11987619Y1180476D01*
X-11978095Y1161428D01*
X-11978095Y1142380D01*
X-11987619Y1113809D01*
X-12101904Y999523D01*
X-11978095Y999523D01*
G04 #@! TO.C,J3*
D12*
X8510380Y6572666D02*
X9224666Y6572666D01*
X9367523Y6525047D01*
X9462761Y6429809D01*
X9510380Y6286952D01*
X9510380Y6191714D01*
X8510380Y6953619D02*
X8510380Y7572666D01*
X8891333Y7239333D01*
X8891333Y7382190D01*
X8938952Y7477428D01*
X8986571Y7525047D01*
X9081809Y7572666D01*
X9319904Y7572666D01*
X9415142Y7525047D01*
X9462761Y7477428D01*
X9510380Y7382190D01*
X9510380Y7096476D01*
X9462761Y7001238D01*
X9415142Y6953619D01*
G04 #@! TO.C,REF\002A\002A*
X-24273333Y1387619D02*
X-24606666Y1863809D01*
X-24844761Y1387619D02*
X-24844761Y2387619D01*
X-24463809Y2387619D01*
X-24368571Y2340000D01*
X-24320952Y2292380D01*
X-24273333Y2197142D01*
X-24273333Y2054285D01*
X-24320952Y1959047D01*
X-24368571Y1911428D01*
X-24463809Y1863809D01*
X-24844761Y1863809D01*
X-23844761Y1911428D02*
X-23511428Y1911428D01*
X-23368571Y1387619D02*
X-23844761Y1387619D01*
X-23844761Y2387619D01*
X-23368571Y2387619D01*
X-22606666Y1911428D02*
X-22940000Y1911428D01*
X-22940000Y1387619D02*
X-22940000Y2387619D01*
X-22463809Y2387619D01*
X-21940000Y2387619D02*
X-21940000Y2149523D01*
X-22178095Y2244761D02*
X-21940000Y2149523D01*
X-21701904Y2244761D01*
X-22082857Y1959047D02*
X-21940000Y2149523D01*
X-21797142Y1959047D01*
X-21178095Y2387619D02*
X-21178095Y2149523D01*
X-21416190Y2244761D02*
X-21178095Y2149523D01*
X-20940000Y2244761D01*
X-21320952Y1959047D02*
X-21178095Y2149523D01*
X-21035238Y1959047D01*
G04 #@! TD*
M02*
