M48
;DRILL file {KiCad 5.0.1-33cea8e~67~ubuntu16.04.1} date Thu 18 Oct 2018 10:50:05 AM EDT
;FORMAT={-:-/ absolute / inch / decimal}
FMAT,2
INCH,TZ
T1C0.0118
T2C0.0984
%
G90
G05
M72
T1
X-0.5823Y-0.3374
X-0.5803Y0.1563
X-0.576Y0.3701
X-0.576Y0.3319
X-0.5433Y-0.3671
X-0.5323Y0.2906
X-0.5323Y-0.4122
X-0.4941Y0.2906
X-0.4941Y-0.4122
X-0.4803Y-0.3159
X-0.4803Y-0.3415
X-0.4752Y0.487
X-0.4488Y0.1654
X-0.4402Y0.1492
X-0.4291Y0.1654
X-0.4177Y0.1492
X-0.4056Y0.4903
X-0.3791Y0.1528
X-0.3108Y-0.3159
X-0.201Y-0.4458
X-0.1449Y-0.1591
X-0.1335Y0.3114
X-0.1311Y0.124
X-0.1311Y0.0992
X-0.1299Y0.1496
X-0.1287Y-0.4685
X-0.1055Y0.15
X-0.1051Y0.1224
X-0.1043Y0.0984
X-0.0795Y0.4803
X-0.0732Y0.2114
X-0.0713Y-0.6299
X-0.0564Y0.1913
X-0.0394Y0.0984
X-0.0315Y0.435
X-0.0211Y0.7098
X-0.0201Y-0.7138
X-0.0177Y-0.0787
X-0.0146Y0.6165
X-0.0047Y0.0291
X-0.002Y0.3406
X-0.002Y0.0028
X0.0079Y0.435
X0.0125Y0.4819
X0.0171Y0.7098
X0.0181Y-0.7138
X0.0276Y0.2461
X0.0315Y0.6683
X0.0315Y0.6171
X0.0315Y0.5915
X0.0315Y0.0128
X0.0315Y-0.6112
X0.0315Y-0.6368
X0.0449Y0.4646
X0.048Y0.2004
X0.0656Y0.465
X0.0756Y0.0626
X0.0925Y0.2913
X0.1181Y0.0984
X0.122Y0.3287
X0.1348Y0.4449
X0.1488Y0.3949
X0.1684Y0.4446
X0.1711Y-0.0441
X0.1969Y0.0984
X0.2063Y0.3606
X0.2063Y0.2626
X0.3252Y0.2657
X0.3898Y0.315
X0.4406Y-0.3378
X0.4445Y0.3677
X0.4803Y-0.3159
X0.4909Y0.2909
X0.4925Y-0.4106
X0.5122Y0.3311
X0.5122Y0.3311
X0.5165Y-0.3327
X0.5291Y0.2909
X0.5307Y-0.4106
X0.5433Y0.3671
T2
X0.6299Y0.
X-0.6299Y0.
T0
M30
