G04 #@! TF.GenerationSoftware,KiCad,Pcbnew,5.0.1-33cea8e~67~ubuntu16.04.1*
G04 #@! TF.CreationDate,2018-10-18T10:50:00-04:00*
G04 #@! TF.ProjectId,MQP Kat Foot Sensors,4D5150204B617420466F6F742053656E,rev?*
G04 #@! TF.SameCoordinates,Original*
G04 #@! TF.FileFunction,Soldermask,Bot*
G04 #@! TF.FilePolarity,Negative*
%FSLAX46Y46*%
G04 Gerber Fmt 4.6, Leading zero omitted, Abs format (unit mm)*
G04 Created by KiCad (PCBNEW 5.0.1-33cea8e~67~ubuntu16.04.1) date Thu 18 Oct 2018 10:50:00 AM EDT*
%MOMM*%
%LPD*%
G01*
G04 APERTURE LIST*
%ADD10C,0.100000*%
G04 APERTURE END LIST*
D10*
G36*
X-350000Y-17850000D02*
X-1250000Y-17850000D01*
X-1250000Y-17572055D01*
X-1252402Y-17547669D01*
X-1259515Y-17524220D01*
X-1271066Y-17502609D01*
X-1286612Y-17483667D01*
X-1305554Y-17468121D01*
X-1327165Y-17456570D01*
X-1350614Y-17449457D01*
X-1375000Y-17447055D01*
X-1411283Y-17452437D01*
X-1439024Y-17460851D01*
X-1481141Y-17465000D01*
X-2138859Y-17465000D01*
X-2180974Y-17460852D01*
X-2215568Y-17450358D01*
X-2247441Y-17433322D01*
X-2275387Y-17410387D01*
X-2298322Y-17382441D01*
X-2315358Y-17350568D01*
X-2325852Y-17315974D01*
X-2330000Y-17273859D01*
X-2330000Y-16666141D01*
X-2325852Y-16624026D01*
X-2315358Y-16589432D01*
X-2294213Y-16549872D01*
X-2290243Y-16543931D01*
X-2280864Y-16521292D01*
X-2276083Y-16497259D01*
X-2276081Y-16472755D01*
X-2280860Y-16448721D01*
X-2290237Y-16426082D01*
X-2294205Y-16420142D01*
X-2315358Y-16380568D01*
X-2325852Y-16345974D01*
X-2330000Y-16303859D01*
X-2330000Y-15696141D01*
X-2325852Y-15654026D01*
X-2315358Y-15619432D01*
X-2298322Y-15587559D01*
X-2275387Y-15559613D01*
X-2247441Y-15536678D01*
X-2215568Y-15519642D01*
X-2180974Y-15509148D01*
X-2138859Y-15505000D01*
X-1481141Y-15505000D01*
X-1439024Y-15509149D01*
X-1411283Y-15517563D01*
X-1387250Y-15522343D01*
X-1362745Y-15522343D01*
X-1338712Y-15517562D01*
X-1316073Y-15508184D01*
X-1295699Y-15494570D01*
X-1278372Y-15477242D01*
X-1264759Y-15456867D01*
X-1255382Y-15434228D01*
X-1250000Y-15397945D01*
X-1250000Y-15150000D01*
X-350000Y-15150000D01*
X-350000Y-17850000D01*
X-350000Y-17850000D01*
G37*
G36*
X1250000Y-17850000D02*
X350000Y-17850000D01*
X350000Y-15150000D01*
X1250000Y-15150000D01*
X1250000Y-17850000D01*
X1250000Y-17850000D01*
G37*
G36*
X14250000Y-10350000D02*
X13350000Y-10350000D01*
X13350000Y-7650000D01*
X14250000Y-7650000D01*
X14250000Y-10350000D01*
X14250000Y-10350000D01*
G37*
G36*
X12650000Y-10350000D02*
X11750000Y-10350000D01*
X11750000Y-10152055D01*
X11747598Y-10127669D01*
X11740485Y-10104220D01*
X11728934Y-10082609D01*
X11713388Y-10063667D01*
X11694446Y-10048121D01*
X11672835Y-10036570D01*
X11649386Y-10029457D01*
X11625000Y-10027055D01*
X11588717Y-10032437D01*
X11560976Y-10040851D01*
X11518859Y-10045000D01*
X10861141Y-10045000D01*
X10819026Y-10040852D01*
X10784432Y-10030358D01*
X10752559Y-10013322D01*
X10724613Y-9990387D01*
X10701678Y-9962441D01*
X10684642Y-9930568D01*
X10674148Y-9895974D01*
X10670000Y-9853859D01*
X10670000Y-9246141D01*
X10674148Y-9204026D01*
X10684642Y-9169432D01*
X10705787Y-9129872D01*
X10709757Y-9123931D01*
X10719136Y-9101292D01*
X10723917Y-9077259D01*
X10723919Y-9052755D01*
X10719140Y-9028721D01*
X10709763Y-9006082D01*
X10705795Y-9000142D01*
X10684642Y-8960568D01*
X10674148Y-8925974D01*
X10670000Y-8883859D01*
X10670000Y-8276141D01*
X10674148Y-8234026D01*
X10684642Y-8199432D01*
X10701678Y-8167559D01*
X10724613Y-8139613D01*
X10752559Y-8116678D01*
X10784432Y-8099642D01*
X10819026Y-8089148D01*
X10861141Y-8085000D01*
X11518859Y-8085000D01*
X11560976Y-8089149D01*
X11588717Y-8097563D01*
X11612750Y-8102343D01*
X11637255Y-8102343D01*
X11661288Y-8097562D01*
X11683927Y-8088184D01*
X11704301Y-8074570D01*
X11721628Y-8057242D01*
X11735241Y-8036867D01*
X11744618Y-8014228D01*
X11750000Y-7977945D01*
X11750000Y-7650000D01*
X12650000Y-7650000D01*
X12650000Y-10350000D01*
X12650000Y-10350000D01*
G37*
G36*
X-13350000Y-10350000D02*
X-14250000Y-10350000D01*
X-14250000Y-10148121D01*
X-14252402Y-10123735D01*
X-14259515Y-10100286D01*
X-14271066Y-10078675D01*
X-14286612Y-10059733D01*
X-14305554Y-10044187D01*
X-14327165Y-10032636D01*
X-14350614Y-10025523D01*
X-14375000Y-10023121D01*
X-14399386Y-10025523D01*
X-14411286Y-10028504D01*
X-14419025Y-10030852D01*
X-14461141Y-10035000D01*
X-15118859Y-10035000D01*
X-15160974Y-10030852D01*
X-15195568Y-10020358D01*
X-15227441Y-10003322D01*
X-15255387Y-9980387D01*
X-15278322Y-9952441D01*
X-15295358Y-9920568D01*
X-15305852Y-9885974D01*
X-15310000Y-9843859D01*
X-15310000Y-9236141D01*
X-15305852Y-9194026D01*
X-15295358Y-9159432D01*
X-15274213Y-9119872D01*
X-15270243Y-9113931D01*
X-15260864Y-9091292D01*
X-15256083Y-9067259D01*
X-15256081Y-9042755D01*
X-15260860Y-9018721D01*
X-15270237Y-8996082D01*
X-15274205Y-8990142D01*
X-15295358Y-8950568D01*
X-15305852Y-8915974D01*
X-15310000Y-8873859D01*
X-15310000Y-8266141D01*
X-15305852Y-8224026D01*
X-15295358Y-8189432D01*
X-15278322Y-8157559D01*
X-15255387Y-8129613D01*
X-15227441Y-8106678D01*
X-15195568Y-8089642D01*
X-15160974Y-8079148D01*
X-15118859Y-8075000D01*
X-14461141Y-8075000D01*
X-14419025Y-8079148D01*
X-14411286Y-8081496D01*
X-14387253Y-8086277D01*
X-14362748Y-8086277D01*
X-14338715Y-8081497D01*
X-14316076Y-8072119D01*
X-14295701Y-8058506D01*
X-14278374Y-8041178D01*
X-14264760Y-8020804D01*
X-14255383Y-7998165D01*
X-14250602Y-7974132D01*
X-14250000Y-7961879D01*
X-14250000Y-7650000D01*
X-13350000Y-7650000D01*
X-13350000Y-10350000D01*
X-13350000Y-10350000D01*
G37*
G36*
X-11750000Y-10350000D02*
X-12650000Y-10350000D01*
X-12650000Y-7650000D01*
X-11750000Y-7650000D01*
X-11750000Y-10350000D01*
X-11750000Y-10350000D01*
G37*
G36*
X-350000Y-1355000D02*
X-347598Y-1379386D01*
X-340485Y-1402835D01*
X-328934Y-1424446D01*
X-313388Y-1443388D01*
X-294446Y-1458934D01*
X-272835Y-1470485D01*
X-249386Y-1477598D01*
X-225000Y-1480000D01*
X-146141Y-1480000D01*
X-104026Y-1484148D01*
X-69432Y-1494642D01*
X-29872Y-1515787D01*
X-23931Y-1519757D01*
X-1292Y-1529136D01*
X22741Y-1533917D01*
X47245Y-1533919D01*
X71279Y-1529140D01*
X93918Y-1519763D01*
X99858Y-1515795D01*
X139432Y-1494642D01*
X174026Y-1484148D01*
X216141Y-1480000D01*
X225000Y-1480000D01*
X249386Y-1477598D01*
X272835Y-1470485D01*
X294446Y-1458934D01*
X313388Y-1443388D01*
X328934Y-1424446D01*
X340485Y-1402835D01*
X347598Y-1379386D01*
X350000Y-1355000D01*
X350000Y1350000D01*
X1250000Y1350000D01*
X1250000Y-1350000D01*
X1073170Y-1350000D01*
X1048784Y-1352402D01*
X1025335Y-1359515D01*
X1003724Y-1371066D01*
X984782Y-1386612D01*
X969236Y-1405554D01*
X957685Y-1427165D01*
X950572Y-1450614D01*
X948170Y-1475000D01*
X950572Y-1499386D01*
X957685Y-1522835D01*
X969236Y-1544446D01*
X976544Y-1554299D01*
X983320Y-1562555D01*
X1000358Y-1594432D01*
X1010852Y-1629026D01*
X1015000Y-1671141D01*
X1015000Y-2328859D01*
X1010852Y-2370974D01*
X1000358Y-2405568D01*
X983322Y-2437441D01*
X960387Y-2465387D01*
X932441Y-2488322D01*
X900568Y-2505358D01*
X865974Y-2515852D01*
X823859Y-2520000D01*
X216141Y-2520000D01*
X174026Y-2515852D01*
X139432Y-2505358D01*
X99872Y-2484213D01*
X93931Y-2480243D01*
X71292Y-2470864D01*
X47259Y-2466083D01*
X22755Y-2466081D01*
X-1279Y-2470860D01*
X-23918Y-2480237D01*
X-29858Y-2484205D01*
X-69432Y-2505358D01*
X-104026Y-2515852D01*
X-146141Y-2520000D01*
X-753859Y-2520000D01*
X-795974Y-2515852D01*
X-830568Y-2505358D01*
X-862441Y-2488322D01*
X-890387Y-2465387D01*
X-913322Y-2437441D01*
X-930358Y-2405568D01*
X-940852Y-2370974D01*
X-945000Y-2328859D01*
X-945000Y-1671141D01*
X-940852Y-1629026D01*
X-930358Y-1594432D01*
X-913320Y-1562555D01*
X-906544Y-1554299D01*
X-892930Y-1533925D01*
X-883553Y-1511286D01*
X-878772Y-1487252D01*
X-878772Y-1462748D01*
X-883552Y-1438715D01*
X-892930Y-1416076D01*
X-906543Y-1395701D01*
X-923871Y-1378374D01*
X-944245Y-1364760D01*
X-966884Y-1355383D01*
X-990918Y-1350602D01*
X-1003170Y-1350000D01*
X-1250000Y-1350000D01*
X-1250000Y-1270088D01*
X-1252402Y-1245702D01*
X-1259515Y-1222253D01*
X-1271066Y-1200642D01*
X-1286612Y-1181700D01*
X-1305554Y-1166154D01*
X-1327165Y-1154603D01*
X-1350614Y-1147490D01*
X-1375000Y-1145088D01*
X-1411284Y-1150470D01*
X-1429026Y-1155852D01*
X-1471141Y-1160000D01*
X-2128859Y-1160000D01*
X-2170974Y-1155852D01*
X-2205568Y-1145358D01*
X-2237441Y-1128322D01*
X-2265387Y-1105387D01*
X-2288322Y-1077441D01*
X-2305358Y-1045568D01*
X-2315852Y-1010974D01*
X-2320000Y-968859D01*
X-2320000Y-361141D01*
X-2315852Y-319026D01*
X-2305358Y-284432D01*
X-2284213Y-244872D01*
X-2280243Y-238931D01*
X-2270864Y-216292D01*
X-2266083Y-192259D01*
X-2266081Y-167755D01*
X-2270860Y-143721D01*
X-2280237Y-121082D01*
X-2284205Y-115142D01*
X-2305358Y-75568D01*
X-2315852Y-40974D01*
X-2320000Y1141D01*
X-2320000Y608859D01*
X-2315852Y650974D01*
X-2305358Y685568D01*
X-2288322Y717441D01*
X-2265387Y745387D01*
X-2237441Y768322D01*
X-2205568Y785358D01*
X-2170974Y795852D01*
X-2128859Y800000D01*
X-1471141Y800000D01*
X-1429026Y795852D01*
X-1411284Y790470D01*
X-1387251Y785690D01*
X-1362746Y785690D01*
X-1338713Y790471D01*
X-1316074Y799849D01*
X-1295700Y813463D01*
X-1278373Y830790D01*
X-1264759Y851165D01*
X-1255382Y873804D01*
X-1250000Y910088D01*
X-1250000Y1350000D01*
X-350000Y1350000D01*
X-350000Y-1355000D01*
X-350000Y-1355000D01*
G37*
G36*
X-15577053Y1394278D02*
X-15313167Y1284973D01*
X-15075676Y1126287D01*
X-14873713Y924324D01*
X-14715027Y686833D01*
X-14605722Y422947D01*
X-14550000Y142814D01*
X-14550000Y-142814D01*
X-14605722Y-422947D01*
X-14715027Y-686833D01*
X-14873713Y-924324D01*
X-15075676Y-1126287D01*
X-15313167Y-1284973D01*
X-15577053Y-1394278D01*
X-15857186Y-1450000D01*
X-16142814Y-1450000D01*
X-16422947Y-1394278D01*
X-16686833Y-1284973D01*
X-16924324Y-1126287D01*
X-17126287Y-924324D01*
X-17284973Y-686833D01*
X-17394278Y-422947D01*
X-17450000Y-142814D01*
X-17450000Y142814D01*
X-17394278Y422947D01*
X-17284973Y686833D01*
X-17126287Y924324D01*
X-16924324Y1126287D01*
X-16686833Y1284973D01*
X-16422947Y1394278D01*
X-16142814Y1450000D01*
X-15857186Y1450000D01*
X-15577053Y1394278D01*
X-15577053Y1394278D01*
G37*
G36*
X16422947Y1394278D02*
X16686833Y1284973D01*
X16924324Y1126287D01*
X17126287Y924324D01*
X17284973Y686833D01*
X17394278Y422947D01*
X17450000Y142814D01*
X17450000Y-142814D01*
X17394278Y-422947D01*
X17284973Y-686833D01*
X17126287Y-924324D01*
X16924324Y-1126287D01*
X16686833Y-1284973D01*
X16422947Y-1394278D01*
X16142814Y-1450000D01*
X15857186Y-1450000D01*
X15577053Y-1394278D01*
X15313167Y-1284973D01*
X15075676Y-1126287D01*
X14873713Y-924324D01*
X14715027Y-686833D01*
X14605722Y-422947D01*
X14550000Y-142814D01*
X14550000Y142814D01*
X14605722Y422947D01*
X14715027Y686833D01*
X14873713Y924324D01*
X15075676Y1126287D01*
X15313167Y1284973D01*
X15577053Y1394278D01*
X15857186Y1450000D01*
X16142814Y1450000D01*
X16422947Y1394278D01*
X16422947Y1394278D01*
G37*
G36*
X-13350000Y7650000D02*
X-14250000Y7650000D01*
X-14250000Y10350000D01*
X-13350000Y10350000D01*
X-13350000Y7650000D01*
X-13350000Y7650000D01*
G37*
G36*
X-11750000Y7650000D02*
X-12650000Y7650000D01*
X-12650000Y10350000D01*
X-11750000Y10350000D01*
X-11750000Y7650000D01*
X-11750000Y7650000D01*
G37*
G36*
X14250000Y7650000D02*
X13350000Y7650000D01*
X13350000Y10350000D01*
X14250000Y10350000D01*
X14250000Y7650000D01*
X14250000Y7650000D01*
G37*
G36*
X12650000Y7650000D02*
X11750000Y7650000D01*
X11750000Y7750000D01*
X11747598Y7774386D01*
X11740485Y7797835D01*
X11728934Y7819446D01*
X11713388Y7838388D01*
X11694446Y7853934D01*
X11672835Y7865485D01*
X11649386Y7872598D01*
X11625000Y7875000D01*
X10961141Y7875000D01*
X10919026Y7879148D01*
X10884432Y7889642D01*
X10852559Y7906678D01*
X10824613Y7929613D01*
X10801678Y7957559D01*
X10784642Y7989432D01*
X10774148Y8024026D01*
X10770000Y8066141D01*
X10770000Y8673859D01*
X10774148Y8715974D01*
X10784642Y8750568D01*
X10805787Y8790128D01*
X10809757Y8796069D01*
X10819136Y8818708D01*
X10823917Y8842741D01*
X10823919Y8867245D01*
X10819140Y8891279D01*
X10809763Y8913918D01*
X10805795Y8919858D01*
X10784642Y8959432D01*
X10774148Y8994026D01*
X10770000Y9036141D01*
X10770000Y9643859D01*
X10774148Y9685974D01*
X10784642Y9720568D01*
X10801678Y9752441D01*
X10824613Y9780387D01*
X10852559Y9803322D01*
X10884432Y9820358D01*
X10919026Y9830852D01*
X10961141Y9835000D01*
X11625000Y9835000D01*
X11649386Y9837402D01*
X11672835Y9844515D01*
X11694446Y9856066D01*
X11713388Y9871612D01*
X11728934Y9890554D01*
X11740485Y9912165D01*
X11747598Y9935614D01*
X11750000Y9960000D01*
X11750000Y10350000D01*
X12650000Y10350000D01*
X12650000Y7650000D01*
X12650000Y7650000D01*
G37*
G36*
X-350000Y14650000D02*
X-1250000Y14650000D01*
X-1250000Y17350000D01*
X-350000Y17350000D01*
X-350000Y14650000D01*
X-350000Y14650000D01*
G37*
G36*
X1250000Y16939291D02*
X1252402Y16914905D01*
X1259515Y16891456D01*
X1271066Y16869845D01*
X1286612Y16850903D01*
X1305554Y16835357D01*
X1327165Y16823806D01*
X1350614Y16816693D01*
X1375000Y16814291D01*
X1399386Y16816693D01*
X1422835Y16823806D01*
X1433925Y16829051D01*
X1464435Y16845359D01*
X1499026Y16855852D01*
X1541141Y16860000D01*
X2198859Y16860000D01*
X2240974Y16855852D01*
X2275568Y16845358D01*
X2307441Y16828322D01*
X2335387Y16805387D01*
X2358322Y16777441D01*
X2375358Y16745568D01*
X2385852Y16710974D01*
X2390000Y16668859D01*
X2390000Y16061141D01*
X2385852Y16019026D01*
X2375358Y15984432D01*
X2354213Y15944872D01*
X2350243Y15938931D01*
X2340864Y15916292D01*
X2336083Y15892259D01*
X2336081Y15867755D01*
X2340860Y15843721D01*
X2350237Y15821082D01*
X2354205Y15815142D01*
X2375358Y15775568D01*
X2385852Y15740974D01*
X2390000Y15698859D01*
X2390000Y15091141D01*
X2385852Y15049026D01*
X2375358Y15014432D01*
X2358322Y14982559D01*
X2335387Y14954613D01*
X2307441Y14931678D01*
X2275568Y14914642D01*
X2240974Y14904148D01*
X2198859Y14900000D01*
X1541141Y14900000D01*
X1499026Y14904148D01*
X1464435Y14914641D01*
X1433925Y14930949D01*
X1411286Y14940326D01*
X1387253Y14945107D01*
X1362749Y14945107D01*
X1338715Y14940327D01*
X1316076Y14930950D01*
X1295701Y14917336D01*
X1278374Y14900009D01*
X1264760Y14879634D01*
X1255383Y14856995D01*
X1250602Y14832962D01*
X1250000Y14820709D01*
X1250000Y14650000D01*
X350000Y14650000D01*
X350000Y17350000D01*
X1250000Y17350000D01*
X1250000Y16939291D01*
X1250000Y16939291D01*
G37*
M02*
